<svg width="581" height="320" viewBox="0 0 581 320" fill="none" xmlns="http://www.w3.org/2000/svg">
<path d="M569.808 267.182V267.332C569.573 271.877 568.975 276.145 568.078 280.179C563.337 301.498 551.013 315.134 547.938 318.442C547.511 318.89 547.276 319.146 547.233 319.21C533.863 319.21 447.406 319.232 348.903 319.189C322.355 319.189 294.91 319.168 267.807 319.146C255.505 319.146 243.246 319.125 231.178 319.125C222.4 319.125 213.686 319.104 205.143 319.104C172.658 319.082 142.158 319.04 115.995 318.997C101.984 318.976 89.2334 318.954 78.0846 318.912C48.3757 318.826 30.072 318.72 30.0292 318.592L30.0079 318.485C30.0079 318.485 29.9865 318.463 29.9865 318.421C29.9865 318.378 29.9438 318.357 29.9438 318.357C29.8584 318.165 12.7507 294.52 7.66748 262.082C6.4928 254.57 5.95885 246.568 6.42872 238.287V238.159C8.20143 207.6 23.6859 173.178 71.0151 143.941C116.23 115.985 68.1532 97.5258 104.12 66.3901C145.448 30.6662 190.577 70.2101 236.539 53.9913C244.634 51.1104 252.793 46.5222 260.973 39.4585C265.565 35.4891 270.584 31.9893 275.966 29.0017C276.799 28.5108 277.61 28.0627 278.465 27.6359C281.711 25.95 285.043 24.4348 288.503 23.069C290.81 22.1727 293.159 21.3191 295.572 20.5508C299.396 19.2918 303.304 18.2247 307.298 17.3498C312.958 16.048 318.831 15.109 324.79 14.4688C327.374 14.17 330.001 13.9566 332.671 13.7859C381.325 10.7129 435.745 26.9103 466.714 51.2597C468.422 52.6042 470.067 53.9913 471.647 55.3784C472.288 55.9546 473.185 56.8083 474.253 57.8966C481.472 65.3444 496.188 84.2734 490.122 109.882C489.609 112.059 488.926 114.299 488.093 116.583C486.897 119.848 485.338 123.198 483.394 126.634C480.383 131.969 480.831 137.219 483.565 142.533L483.586 142.554C483.736 142.832 483.885 143.13 484.056 143.408C484.633 144.411 485.274 145.414 486 146.417C486.406 146.993 486.854 147.569 487.303 148.145C487.409 148.295 487.538 148.423 487.644 148.572C487.879 148.871 488.114 149.148 488.371 149.426C488.563 149.661 488.776 149.874 488.969 150.109C489.161 150.343 489.374 150.578 489.588 150.792C489.802 151.026 490.015 151.24 490.229 151.474C490.442 151.709 490.656 151.944 490.891 152.157C491.104 152.392 491.339 152.627 491.574 152.84C491.809 153.075 492.023 153.31 492.258 153.523C496.166 157.407 497.234 162.294 498.259 167.992C498.665 170.211 499.05 172.58 499.583 175.034C499.605 175.141 499.626 175.248 499.648 175.354C500.117 177.424 500.694 179.58 501.484 181.821C501.527 181.927 501.57 182.034 501.591 182.162C502.296 184.104 503.15 186.089 504.239 188.137C504.346 188.329 504.432 188.521 504.539 188.714C504.624 188.863 504.709 189.012 504.795 189.162C504.859 189.268 504.923 189.375 504.987 189.482C505.094 189.674 505.201 189.866 505.307 190.037C505.35 190.122 505.393 190.186 505.457 190.271C506.226 191.573 507.123 192.875 508.105 194.219C508.532 194.796 509.002 195.393 509.472 195.991C512.035 199.149 515.239 202.414 519.276 205.743C524.615 210.139 531.428 214.685 540.142 219.337C541.53 220.084 542.876 220.831 544.157 221.578C556.289 228.727 563.892 236.687 566.605 245.671C566.989 246.93 567.63 249.427 568.271 252.393C569.125 257.088 570.022 262.829 569.808 267.182Z" fill="#EBF3FA"/>
<path d="M569.787 267.182C569.787 267.225 569.787 267.289 569.809 267.353C569.574 271.899 568.976 276.167 568.079 280.2L544.072 283.956L539.117 284.724L536.298 285.172L516.755 288.224L515.004 288.502L511.074 289.12L510.049 289.291C510.049 289.291 509.216 289.398 507.742 289.526C507.614 289.547 507.486 289.547 507.358 289.569C506.397 289.654 505.179 289.761 503.791 289.867C503.279 289.91 502.723 289.953 502.168 289.974C502.061 289.974 501.954 289.995 501.848 289.995C501.057 290.038 500.224 290.102 499.349 290.145C497.555 290.251 495.632 290.315 493.625 290.379C492.835 290.401 492.044 290.422 491.254 290.422C490.827 290.422 490.421 290.422 489.994 290.422C489.481 290.422 488.969 290.422 488.478 290.422C487.73 290.422 486.961 290.401 486.214 290.379C485.658 290.358 485.103 290.358 484.548 290.337C483.779 290.315 483.01 290.273 482.241 290.23C482.134 290.23 482.006 290.209 481.878 290.209C481.515 290.187 481.173 290.166 480.81 290.145C479.059 290.017 477.329 289.825 475.706 289.59C475.428 289.547 475.15 289.505 474.894 289.462C468.743 288.459 463.959 286.538 462.848 283.124C461.844 279.987 464.023 275.527 471.178 269.295C472.374 268.271 473.612 267.268 474.894 266.329C483.202 260.225 493.433 255.893 504.154 252.842C504.603 252.714 505.051 252.586 505.478 252.457C505.543 252.436 505.607 252.415 505.692 252.393C505.82 252.372 505.927 252.329 506.055 252.287C506.29 252.223 506.546 252.159 506.781 252.095C507.208 251.988 507.636 251.881 508.041 251.775C510.177 251.22 512.334 250.729 514.492 250.281C515.025 250.174 515.581 250.046 516.115 249.939C516.371 249.897 516.627 249.833 516.884 249.79C517.055 249.747 517.225 249.726 517.418 249.683C517.674 249.641 517.951 249.577 518.229 249.534C527.199 247.848 536.084 246.866 544.072 246.333C553.064 245.735 560.945 245.671 566.519 245.778C567.16 247.336 567.716 249.705 568.185 252.5C568.89 256.896 569.424 262.317 569.787 267.182Z" fill="#A8D29F"/>
<path d="M300.25 65.4725C300.25 65.4725 307.149 51.1957 323.68 52.7963C323.68 52.7963 347.665 29.0017 373.23 49.6166C373.23 49.6166 400.419 44.5162 420.538 54.034C433.951 60.3935 438.393 67.0517 438.393 67.0517L300.25 65.4725Z" fill="#F8FCFF"/>
<path d="M276.051 192.448C276.051 192.448 285.384 176.293 307.682 178.086C307.682 178.086 340.061 151.154 374.575 174.501C374.575 174.501 411.268 168.718 438.457 179.516C456.568 186.708 462.57 194.262 462.57 194.262L276.051 192.448Z" fill="#F8FCFF"/>
<path d="M429.721 121.192C429.721 121.192 422.673 109.114 405.821 112.101C388.991 115.089 393.455 134.53 384.143 143.664C374.831 152.798 366.694 160.95 370.709 173.861C374.703 186.772 353.452 189.525 353.516 209.03C353.58 228.535 358.108 240.016 384.228 241.531C410.349 243.046 452.125 236.153 457.785 228.279C463.445 220.425 462.484 203.161 448.281 181.116C434.078 159.093 447.064 157.108 437.559 144.347C428.076 131.607 434.761 126.442 429.721 121.192Z" fill="#79B27F"/>
<path d="M112.193 101.026C112.193 101.026 118.323 90.3981 132.996 91.5932C132.996 91.5932 154.29 73.8806 176.993 89.2244C176.993 89.2244 201.128 85.4258 218.983 92.5108C230.901 97.2484 234.831 102.199 234.831 102.199L112.193 101.026Z" fill="#F8FCFF"/>
<path d="M308.279 283.743H303.324L304.392 143.301H306.891L308.279 283.743Z" fill="#739AF0"/>
<path d="M305.332 144.048L269.28 174.885L255.269 186.878L254.223 185.811L266.632 172.068L286.943 149.554L303.004 141.146L305.332 144.048Z" fill="#7FAAF7"/>
<path d="M269.28 174.885L255.269 186.878L254.223 185.811L266.632 172.068L269.28 174.885Z" fill="#F99746"/>
<path d="M307.788 141.978L304.264 143.216L286.579 98.2087L280.193 81.926L281.56 81.2858L290.125 96.8643L305.097 124.052L307.788 141.978Z" fill="#7FAAF7"/>
<path d="M290.125 96.8643L286.579 98.2087L280.193 81.926L281.56 81.2858L290.125 96.8643Z" fill="#F99746"/>
<path d="M371.521 144.411L347.984 146.033L322.76 147.783L305.375 142.682L305.717 138.969L346.916 141.444L371.499 142.896L371.521 144.411Z" fill="#7FAAF7"/>
<path d="M371.52 144.411L347.151 146.097L346.916 141.444L371.499 142.896L371.52 144.411Z" fill="#F99746"/>
<path d="M305.568 138.5C303.774 138.393 302.257 139.759 302.15 141.53C302.044 143.322 303.411 144.838 305.183 144.944C306.977 145.051 308.494 143.685 308.6 141.914C308.707 140.143 307.34 138.606 305.568 138.5Z" fill="#2B478B"/>
<path d="M139.681 318.357H262.318L313.449 318.314H405.907C405.907 318.314 405.972 318.229 406.057 318.037C406.121 317.909 406.228 317.717 406.356 317.503L406.399 317.439C406.399 317.439 406.399 317.439 406.399 317.396C406.399 317.396 406.441 317.354 406.441 317.332C406.655 317.055 406.804 316.756 406.997 316.393C407.103 316.223 407.21 316.009 407.36 315.817C407.36 315.775 407.36 315.775 407.36 315.753C407.403 315.711 407.403 315.711 407.403 315.711C408.107 314.494 408.962 312.936 409.965 311.016C410.051 310.845 410.158 310.674 410.243 310.482C410.734 309.052 411.29 307.43 411.888 305.659C413.276 301.348 414.878 296.099 416.437 290.166C417.056 287.819 417.654 285.386 418.231 282.846C418.573 281.374 418.914 279.859 419.235 278.301C419.32 277.853 419.427 277.404 419.512 276.935C420.11 274.054 420.687 271.066 421.178 268.015C422.182 262.061 422.972 255.851 423.421 249.555C383.717 251.604 307.17 256.982 249.589 269.829C168.343 287.968 148.267 290.892 113.859 294.135C94.6155 295.992 116.593 308.071 139.681 318.357Z" fill="#D4DFFF"/>
<path d="M191.324 298.724C191.324 298.724 322.91 258.689 356.037 255.787C389.163 252.884 357.425 259.671 357.425 259.671C357.425 259.671 267.38 283.081 246.449 293.068C202.195 314.153 191.324 298.724 191.324 298.724Z" fill="#D4DFFF"/>
<path d="M231.072 317.204C231.072 317.204 340.724 266.884 370.411 258.71C400.078 250.537 372.334 261.954 372.334 261.954C372.334 261.954 285.749 307.068 267.616 318.463C264.967 320.107 231.072 317.204 231.072 317.204Z" fill="#D4DFFF"/>
<path opacity="0.5" d="M259.776 157.044L242.156 159.306L224.536 161.611L213.686 159.114C213.429 159.605 212.981 159.947 212.447 160.16L213.216 260.396C212.084 260.951 210.973 261.698 209.969 262.658L210.589 160.736L186.882 183.613L177.249 192.918L176.438 192.213L184.853 181.693L198.628 164.471L209.307 158.026C209.265 157.983 209.265 157.983 209.265 157.962C209.265 157.45 209.457 156.98 209.713 156.596L196.13 127.189L190.79 115.665L191.73 115.11L198.628 126.058L210.674 145.158L212.981 155.977H259.712L259.776 157.044Z" fill="#AEC3FF"/>
<path d="M459.154 277.959H452.832L454.199 81.2217H457.403L459.154 277.959Z" fill="#739AF0"/>
<path d="M454.732 74.9476L481.836 20.9777L492.365 0L494.138 0.725575L486.363 22.9837L473.613 59.4331L458.919 77.2097L454.732 74.9476Z" fill="#83AFFC"/>
<path d="M481.836 20.9777L492.365 0L494.138 0.725575L486.364 22.9837L481.836 20.9777Z" fill="#F99746"/>
<path d="M452.896 78.5968L456.399 75.3958L499.371 119.549L514.899 135.512L513.638 136.942L495.869 122.857L464.878 98.3154L452.896 78.5968Z" fill="#83AFFC"/>
<path d="M495.867 122.857L499.37 119.549L514.897 135.512L513.637 136.942L495.867 122.857Z" fill="#F99746"/>
<path d="M376.861 107.15L403.666 93.6419L432.435 79.1731L455.373 76.5695L456.804 81.115L407.211 98.5075L377.63 108.9L376.861 107.15Z" fill="#83AFFC"/>
<path d="M376.861 107.15L404.627 93.1511L407.211 98.5075L377.63 108.9L376.861 107.15Z" fill="#F99746"/>
<path d="M457.209 81.5845C459.366 80.8376 460.477 78.4902 459.73 76.3348C458.982 74.1794 456.633 73.0697 454.475 73.8166C452.318 74.5635 451.208 76.911 451.955 79.0664C452.724 81.2217 455.074 82.3314 457.209 81.5845Z" fill="#2B478B"/>
<path d="M362.892 288.758C362.892 288.758 336.408 280.883 320.902 290.529C305.396 300.175 314.559 311.25 296.234 310.29C277.887 309.33 268.725 308.391 267.764 319.232H348.86L362.892 288.758Z" fill="#A8D29F"/>
<path d="M474.893 194.347H385.895V319.04H474.893V194.347Z" fill="#F9DDBF"/>
<path d="M544.052 197.677V319.04H474.895V194.326H541.04C542.087 195.436 543.09 196.546 544.052 197.677Z" fill="#FFF3E9"/>
<path d="M492.13 153.63L485.103 168.099L481.985 174.48L481.878 174.736L481.75 174.97L481.643 175.162L481.472 175.483L481.408 175.653L478.332 181.97L478.162 182.29L477.777 183.122L472.309 194.347L471.049 196.972L469.277 200.6L468.337 202.542H379.744L385.874 194.604L386.066 194.347L425.899 142.832L425.941 142.789H429.444L483.48 142.597C485.38 146.246 488.413 149.938 492.13 153.63Z" fill="#ED9F4A"/>
<path d="M474.893 201.945V212.316L385.894 216.072V202.542H383.246L429.443 142.768L474.893 201.945Z" fill="#F9DDBF"/>
<path d="M430.234 172.538H428.376C422.054 172.538 416.928 177.659 416.928 183.976V213.042H441.319V183.613C441.319 177.489 436.363 172.538 430.234 172.538Z" fill="#EFCDAF"/>
<path d="M552.167 205.85H473.271L469.277 200.579L464.578 194.326L427.629 145.115L425.899 142.81L425.707 142.554H504.625L504.817 142.81L506.525 145.115L543.496 194.326L548.173 200.579L552.167 205.85Z" fill="#F99746"/>
<path d="M419.791 219.294L399.031 261.997H335.939L368.831 219.444L419.791 219.294Z" fill="#ED9F4A"/>
<path d="M421.67 219.294L400.91 261.997H337.84L370.731 219.444L421.67 219.294Z" fill="#F9DDBF"/>
<path d="M400.782 261.997V318.933L337.84 319.061V261.997H400.782Z" fill="#F9DDBF"/>
<path d="M454.069 261.997H400.781V318.912H454.069V261.997Z" fill="#FFF3E9"/>
<path d="M459.943 264.536H402.682L368.83 219.444H385.895L425.108 219.465L459.943 264.536Z" fill="#F99746"/>
<path d="M365.861 243.153C365.861 241.51 367.186 240.187 368.83 240.187C370.475 240.187 371.799 241.51 371.799 243.153C371.799 244.796 370.475 246.119 368.83 246.119C367.186 246.141 365.861 244.796 365.861 243.153Z" fill="#EFCDAF"/>
<path d="M459.942 264.536H449.071L385.895 219.444L425.108 219.465L459.942 264.536Z" fill="#E88338"/>
<path d="M488.392 196.097H531.727L508.874 168.099H465.539L488.392 196.097Z" fill="#2B478B"/>
<path d="M471.455 175.483H514.769L514.492 175.141H471.178L471.455 175.483Z" fill="#AEC3FF"/>
<path d="M498.688 168.099L521.54 196.097H521.861L499.008 168.099H498.688Z" fill="#AEC3FF"/>
<path d="M487.195 168.099L510.048 196.097H510.39L487.537 168.099H487.195Z" fill="#AEC3FF"/>
<path d="M476.154 168.099L499.007 196.097H499.349L476.496 168.099H476.154Z" fill="#AEC3FF"/>
<path d="M477.116 182.269H520.429L520.152 181.927H476.838L477.116 182.269Z" fill="#AEC3FF"/>
<path d="M483.096 189.589H526.41L526.132 189.268H482.818L483.096 189.589Z" fill="#AEC3FF"/>
<path d="M505.886 176.678L506.142 175.333L503.686 173.989L503.451 175.333L505.886 176.678Z" fill="#AEC3FF"/>
<path d="M494.544 176.678L494.8 175.333L492.344 173.989L492.088 175.333L494.544 176.678Z" fill="#AEC3FF"/>
<path d="M483.331 176.678L483.587 175.333L481.131 173.989L480.875 175.333L483.331 176.678Z" fill="#AEC3FF"/>
<path d="M511.417 183.442L511.673 182.098L509.217 180.754L508.961 182.098L511.417 183.442Z" fill="#AEC3FF"/>
<path d="M500.054 183.442L500.31 182.098L497.854 180.754L497.619 182.098L500.054 183.442Z" fill="#AEC3FF"/>
<path d="M488.862 183.442L489.097 182.098L486.663 180.754L486.406 182.098L488.862 183.442Z" fill="#AEC3FF"/>
<path d="M517.398 190.762L517.654 189.418L515.198 188.073L514.941 189.418L517.398 190.762Z" fill="#AEC3FF"/>
<path d="M506.034 190.762L506.291 189.418L503.835 188.073L503.6 189.418L506.034 190.762Z" fill="#AEC3FF"/>
<path d="M494.822 190.762L495.078 189.418L492.622 188.073L492.387 189.418L494.822 190.762Z" fill="#AEC3FF"/>
<path d="M406.635 255.851H445.891L425.174 230.477H385.918L406.635 255.851Z" fill="#2B478B"/>
<path d="M391.28 237.156H430.536L430.279 236.858H391.023L391.28 237.156Z" fill="#AEC3FF"/>
<path d="M415.947 230.477L436.664 255.851H436.963L416.246 230.477H415.947Z" fill="#AEC3FF"/>
<path d="M405.547 230.477L426.264 255.851H426.563L405.846 230.477H405.547Z" fill="#AEC3FF"/>
<path d="M395.551 230.477L416.247 255.851H416.546L395.85 230.477H395.551Z" fill="#AEC3FF"/>
<path d="M396.405 243.302H435.661L435.404 243.004H396.17L396.405 243.302Z" fill="#AEC3FF"/>
<path d="M401.809 249.939H441.065L440.83 249.641H401.574L401.809 249.939Z" fill="#AEC3FF"/>
<path d="M422.483 238.245L422.718 237.028L420.497 235.812L420.262 237.028L422.483 238.245Z" fill="#AEC3FF"/>
<path d="M412.188 238.245L412.423 237.028L410.202 235.812L409.988 237.028L412.188 238.245Z" fill="#AEC3FF"/>
<path d="M402.043 238.245L402.278 237.028L400.057 235.812L399.822 237.028L402.043 238.245Z" fill="#AEC3FF"/>
<path d="M427.481 244.391L427.716 243.153L425.495 241.937L425.26 243.153L427.481 244.391Z" fill="#AEC3FF"/>
<path d="M417.208 244.391L417.421 243.153L415.2 241.937L414.986 243.153L417.208 244.391Z" fill="#AEC3FF"/>
<path d="M407.042 244.391L407.276 243.153L405.055 241.937L404.82 243.153L407.042 244.391Z" fill="#AEC3FF"/>
<path d="M432.907 251.028L433.142 249.79L430.92 248.574L430.686 249.79L432.907 251.028Z" fill="#AEC3FF"/>
<path d="M422.612 251.028L422.847 249.79L420.626 248.574L420.391 249.79L422.612 251.028Z" fill="#AEC3FF"/>
<path d="M412.467 251.028L412.681 249.79L410.46 248.574L410.246 249.79L412.467 251.028Z" fill="#AEC3FF"/>
<path d="M178.51 318.357C178.488 318.399 178.488 318.421 178.467 318.463H29.9011C29.9011 318.421 29.8584 318.399 29.8584 318.399C29.7729 318.207 12.6652 294.562 7.58203 262.125C11.2983 260.695 24.4334 256.256 42.9081 256.747C43.6556 256.768 44.4031 256.79 45.172 256.832C51.9852 257.152 59.4818 258.155 67.4483 260.204C67.726 260.268 68.0036 260.353 68.3026 260.417C68.3881 260.439 68.4522 260.46 68.5376 260.481C69.0929 260.631 69.6696 260.78 70.2249 260.951C70.8656 261.122 71.5063 261.314 72.1471 261.506C72.382 261.57 72.5956 261.655 72.8305 261.719C73.6849 261.975 74.5392 262.253 75.3935 262.552C85.4317 265.923 91.6469 269.551 95.9825 273.072C96.068 273.136 96.1534 273.222 96.2602 273.286C98.3319 275.014 99.9765 276.7 101.386 278.301C101.771 278.749 102.155 279.176 102.497 279.603C102.945 280.136 103.372 280.648 103.778 281.16C105.188 282.868 106.469 284.447 108.007 285.834C112.193 289.654 118.088 291.959 132.633 291.382C135.238 291.276 137.737 291.254 140.108 291.297C171.397 291.959 183.294 305.339 178.51 318.357Z" fill="#A8D29F"/>
<path d="M569.809 267.182C569.809 267.182 569.787 267.182 569.809 267.182C564.085 266.051 555.136 264.664 544.051 264.344C537.195 264.131 529.506 264.344 521.262 265.24C520.963 265.262 520.686 265.304 520.387 265.326C519.532 265.432 518.657 265.539 517.781 265.646C515.88 265.902 513.958 266.179 511.993 266.521C511.416 266.628 510.84 266.713 510.242 266.82C509.622 266.926 508.981 267.054 508.362 267.161C507.016 267.417 505.65 267.695 504.283 268.015C503.685 268.143 503.065 268.292 502.467 268.42C501.869 268.548 501.25 268.698 500.652 268.847C499.904 269.039 499.178 269.21 498.431 269.402C498.196 269.466 497.961 269.53 497.747 269.594C497.064 269.786 496.38 269.957 495.697 270.17C492.92 270.96 490.122 271.835 487.303 272.816C482.668 274.417 478.568 275.975 474.894 277.511C470.238 279.453 466.266 281.331 462.848 283.102C459.474 284.852 456.59 286.517 454.07 288.053C440.422 296.44 437.048 301.605 418.445 300.153C416.779 300.025 415.199 299.983 413.682 300.004C408.685 300.068 404.434 300.879 400.803 302.117C393.52 304.592 388.8 308.839 385.917 312.381C383.546 315.305 382.436 317.738 382.179 318.314C382.137 318.399 382.115 318.442 382.115 318.442H385.917H400.803H454.07H474.894H480.212H483.95H529.805H533.543H544.072H547.938C551.014 315.134 563.359 301.519 568.079 280.179C568.976 276.145 569.574 271.856 569.809 267.332V267.182Z" fill="#A8D29F"/>
<path d="M83.1895 178.684C83.1895 178.684 86.7776 172.004 95.3208 172.73C95.3208 172.73 107.751 161.569 120.993 171.236C120.993 171.236 135.089 168.846 145.512 173.306C152.475 176.293 154.76 179.409 154.76 179.409L83.1895 178.684Z" fill="#F8FCFF"/>
<path d="M216.783 121.022C216.783 121.022 219.752 114.662 226.843 115.366C226.843 115.366 237.137 104.76 248.115 113.958C248.115 113.958 259.777 111.675 268.427 115.921C274.193 118.76 276.094 121.726 276.094 121.726L216.783 121.022Z" fill="#F8FCFF"/>
<path d="M91.9883 317.418L100.446 317.311L120.202 235.065L111.744 235.172L91.9883 317.418Z" fill="#1D3F77"/>
<path d="M78.0205 319.253H115.952C115.952 317.034 114.158 315.241 111.937 315.241H82.0358C79.8146 315.241 78.0205 317.034 78.0205 319.253Z" fill="#1D3F77"/>
<path d="M165.652 281.16L162.021 262.914L162 262.872L149.869 202.137H32.0156L47.7991 281.182H70.1823H70.3958H95.4487H95.5128H120.459H120.63L145.533 281.16H145.747H165.652Z" fill="#1D3F77"/>
<path d="M167.681 279.603L49.807 279.624L34.0234 202.137H151.898L167.681 279.603Z" fill="#2A4E96"/>
<path d="M72.4241 279.624H72.1892L56.4697 202.35H56.6833L72.4241 279.624Z" fill="#C0D8FB"/>
<path d="M97.5413 279.624H97.3064L81.5869 202.35H81.8005L97.5413 279.624Z" fill="#C0D8FB"/>
<path d="M122.658 279.603H122.424L106.704 202.35H106.918L122.658 279.603Z" fill="#C0D8FB"/>
<path d="M147.775 279.603H147.54L131.82 202.35H132.034L147.775 279.603Z" fill="#C0D8FB"/>
<path d="M155.635 220.511L37.782 220.532L37.7393 220.319L155.592 220.297L155.635 220.511Z" fill="#C0D8FB"/>
<path d="M159.843 241.104L41.9685 241.126L41.9258 240.912H159.8L159.843 241.104Z" fill="#C0D8FB"/>
<path d="M164.029 261.719H46.1755L46.1328 261.527L163.986 261.506L164.029 261.719Z" fill="#C0D8FB"/>
<path d="M60.7212 222.709L57.8379 220.425L59.7815 218.142L62.6861 220.425L60.7212 222.709Z" fill="#C0D8FB"/>
<path d="M64.9282 243.409L62.0449 241.126L64.0099 238.842L66.8932 241.126L64.9282 243.409Z" fill="#C0D8FB"/>
<path d="M85.9448 222.688L83.0615 220.425L85.0265 218.142L87.9098 220.425L85.9448 222.688Z" fill="#C0D8FB"/>
<path d="M90.1742 243.409L87.2695 241.126L89.2345 238.842L92.1391 241.126L90.1742 243.409Z" fill="#C0D8FB"/>
<path d="M111.062 222.688L108.179 220.425L110.144 218.142L113.027 220.425L111.062 222.688Z" fill="#C0D8FB"/>
<path d="M135.965 222.688L133.061 220.404L135.025 218.142L137.93 220.404L135.965 222.688Z" fill="#C0D8FB"/>
<path d="M69.1146 263.896L66.21 261.613L68.1749 259.35L71.0796 261.613L69.1146 263.896Z" fill="#C0D8FB"/>
<path d="M94.3384 263.896L91.4551 261.613L93.42 259.329L96.3033 261.613L94.3384 263.896Z" fill="#C0D8FB"/>
<path d="M119.456 263.896L116.572 261.613L118.537 259.329L121.421 261.613L119.456 263.896Z" fill="#C0D8FB"/>
<path d="M144.338 263.896L141.455 261.613L143.42 259.329L146.303 261.613L144.338 263.896Z" fill="#C0D8FB"/>
<path d="M140.172 243.388L137.289 241.126L139.254 238.842L142.137 241.126L140.172 243.388Z" fill="#C0D8FB"/>
<path d="M115.29 243.388L112.386 241.126L114.351 238.842L117.255 241.126L115.29 243.388Z" fill="#C0D8FB"/>
<path d="M214.689 317.994L220.499 317.93L234.061 261.442L228.252 261.527L214.689 317.994Z" fill="#1D3F77"/>
<path d="M205.1 319.253H231.156C231.156 317.738 229.918 316.5 228.401 316.5H207.876C206.317 316.5 205.1 317.738 205.1 319.253Z" fill="#1D3F77"/>
<path d="M265.265 293.111L262.767 280.563L262.745 280.542L254.437 238.842H173.512L184.34 293.111H199.718H199.846H217.061H217.103H234.232H234.36H251.447H251.596H265.265Z" fill="#1D3F77"/>
<path d="M266.654 292.023L185.729 292.044L174.9 238.842H255.826L266.654 292.023Z" fill="#2A4E96"/>
<path d="M201.255 292.044H201.085L190.299 238.992H190.448L201.255 292.044Z" fill="#C0D8FB"/>
<path d="M218.492 292.044H218.342L207.535 238.992H207.685L218.492 292.044Z" fill="#C0D8FB"/>
<path d="M235.749 292.044H235.579L224.771 238.992H224.942L235.749 292.044Z" fill="#C0D8FB"/>
<path d="M252.984 292.044H252.834L242.027 238.992H242.177L252.984 292.044Z" fill="#C0D8FB"/>
<path d="M258.388 251.454L177.463 251.476L177.441 251.326H258.345L258.388 251.454Z" fill="#C0D8FB"/>
<path d="M261.271 265.603L180.345 265.625L180.303 265.475L261.228 265.454L261.271 265.603Z" fill="#C0D8FB"/>
<path d="M264.155 279.752H183.23L183.188 279.624L264.113 279.603L264.155 279.752Z" fill="#C0D8FB"/>
<path d="M193.203 252.97L191.238 251.39L192.584 249.833L194.57 251.39L193.203 252.97Z" fill="#C0D8FB"/>
<path d="M196.107 267.182L194.121 265.625L195.467 264.045L197.453 265.625L196.107 267.182Z" fill="#C0D8FB"/>
<path d="M210.545 252.97L208.559 251.39L209.904 249.833L211.89 251.39L210.545 252.97Z" fill="#C0D8FB"/>
<path d="M213.43 267.182L211.443 265.603L212.789 264.045L214.775 265.603L213.43 267.182Z" fill="#C0D8FB"/>
<path d="M227.781 252.97L225.795 251.39L227.14 249.833L229.127 251.39L227.781 252.97Z" fill="#C0D8FB"/>
<path d="M244.867 252.948L242.881 251.39L244.226 249.833L246.213 251.39L244.867 252.948Z" fill="#C0D8FB"/>
<path d="M198.971 281.246L196.984 279.688L198.33 278.13L200.316 279.688L198.971 281.246Z" fill="#C0D8FB"/>
<path d="M216.291 281.246L214.305 279.688L215.65 278.109L217.637 279.688L216.291 281.246Z" fill="#C0D8FB"/>
<path d="M233.549 281.246L231.562 279.688L232.908 278.109L234.894 279.688L233.549 281.246Z" fill="#C0D8FB"/>
<path d="M250.635 281.246L248.648 279.688L249.994 278.109L251.98 279.667L250.635 281.246Z" fill="#C0D8FB"/>
<path d="M247.773 267.161L245.787 265.603L247.133 264.045L249.119 265.603L247.773 267.161Z" fill="#C0D8FB"/>
<path d="M230.664 267.182L228.699 265.603L230.045 264.045L232.031 265.603L230.664 267.182Z" fill="#C0D8FB"/>
<path d="M337.969 299.022L339.891 298.638C339.891 298.638 335.299 280.456 335.919 278.941C336.431 277.703 341.728 276.786 344.334 274.609C344.889 274.139 345.316 273.627 345.551 273.051C346.939 269.679 344.675 267.161 344.675 267.161C344.675 267.161 339.955 268.249 335.684 270.085C332.629 271.386 329.81 273.094 329.02 275.057C327.14 279.816 337.969 299.022 337.969 299.022Z" fill="#E8945B"/>
<path d="M332.737 301.818C332.758 301.626 332.886 301.455 333.078 301.348C333.527 301.092 334.467 300.73 335.171 299.791C335.577 299.257 337.2 297.699 337.2 297.699C337.243 297.699 337.457 297.699 338.482 298.105C339.016 298.318 339.571 297.315 339.571 297.315C339.571 297.315 339.742 297.379 339.891 297.55C340.02 297.678 340.126 297.87 340.148 298.147C340.169 298.532 340.575 299.15 340.874 299.577C341.045 299.833 341.194 300.004 341.194 300.004C341.194 300.004 341.301 300.217 340.404 300.559L339.315 300.836C338.93 300.879 338.653 300.858 338.268 300.9C337.692 300.986 337.478 301.263 337.435 301.306V301.327L332.822 302.522C332.672 302.479 332.694 302.095 332.737 301.818Z" fill="#415DA5"/>
<path d="M323.658 302.543C324.128 302.543 324.512 302.159 324.512 301.69C324.512 291.041 315.841 282.377 305.184 282.377C302.727 282.377 300.314 282.825 298.05 283.721C297.601 283.892 297.388 284.404 297.559 284.831C297.73 285.279 298.221 285.492 298.669 285.322C300.741 284.511 302.92 284.084 305.162 284.084C314.88 284.084 322.782 291.98 322.782 301.69C322.804 302.159 323.188 302.543 323.658 302.543Z" fill="#2C3A64"/>
<path d="M308.111 301.69C308.111 300.111 306.829 298.83 305.249 298.83C303.668 298.83 302.387 300.111 302.387 301.69C302.387 303.269 303.668 304.55 305.249 304.55C306.829 304.55 308.111 303.269 308.111 301.69Z" fill="#415DA5"/>
<path d="M310.045 287.938L305.189 301.456L305.551 301.586L310.407 288.068L310.045 287.938Z" fill="#415DA5"/>
<path d="M318.96 307.772L319.109 307.43L305.376 301.54L296.342 288.651L296.021 288.864L305.12 301.839L305.163 301.861L318.96 307.772Z" fill="#415DA5"/>
<path d="M310.695 316.586L311.058 316.457C310.951 316.159 305.654 302.202 305.419 301.626L305.291 301.263L296.748 314.772L297.068 314.985L305.206 302.117C307.149 307.238 310.609 316.372 310.695 316.586Z" fill="#415DA5"/>
<path d="M320.452 297.894L305.213 300.513L305.278 300.892L320.517 298.273L320.452 297.894Z" fill="#415DA5"/>
<path d="M299.988 287.171L299.623 287.293L304.09 300.674L304.455 300.552L299.988 287.171Z" fill="#415DA5"/>
<path d="M305.27 301.882L305.334 301.861L319.302 294.776L319.131 294.434L305.227 301.476L290.234 298.98L290.17 299.364L305.27 301.882Z" fill="#415DA5"/>
<path d="M299.611 316.095C299.696 315.86 303.285 307.025 305.292 302.095L313.045 314.281L313.366 314.067L305.207 301.242L305.057 301.583C304.822 302.159 299.333 315.647 299.227 315.945L299.611 316.095Z" fill="#415DA5"/>
<path d="M305.271 301.498L305.215 301.878L320.257 304.105L320.314 303.725L305.271 301.498Z" fill="#415DA5"/>
<path d="M314.219 289.838L305.871 299.439L306.161 299.691L314.509 290.09L314.219 289.838Z" fill="#415DA5"/>
<path d="M304.952 302.754L304.568 302.785L305.736 316.843L306.12 316.812L304.952 302.754Z" fill="#415DA5"/>
<path d="M305.81 300.776L292.523 309.981L292.742 310.297L306.029 301.092L305.81 300.776Z" fill="#415DA5"/>
<path d="M316.27 312.104L316.547 311.827L305.441 300.644V286.069H305.057V300.794L316.27 312.104Z" fill="#415DA5"/>
<path d="M318.875 291.895C318.576 291.468 318.234 291.041 317.892 290.657C316.568 289.142 314.988 287.861 313.193 286.901C312.425 286.474 311.592 286.111 310.759 285.834C309.029 285.236 307.17 284.916 305.248 284.916C304.65 284.916 304.052 284.938 303.476 285.002C299.994 285.364 296.812 286.816 294.313 288.971C290.746 292.044 288.461 296.611 288.461 301.669C288.461 303.205 288.675 304.72 289.08 306.193C289.443 307.516 289.977 308.796 290.661 309.991C290.682 310.034 290.704 310.077 290.725 310.098C292.177 312.595 294.249 314.686 296.748 316.137C298.713 317.29 300.87 318.015 303.112 318.314C303.817 318.399 304.522 318.442 305.227 318.442C305.953 318.442 306.679 318.399 307.384 318.314C315.628 317.247 322.014 310.205 322.014 301.669C322.036 298.041 320.861 294.669 318.875 291.895ZM318.618 307.217C318.576 307.345 318.512 307.452 318.469 307.58C317.849 308.946 317.038 310.205 316.034 311.314C315.949 311.421 315.863 311.506 315.778 311.592C315.009 312.424 314.133 313.15 313.172 313.769C313.065 313.833 312.959 313.918 312.852 313.982C312.126 314.43 311.378 314.814 310.566 315.134C310.438 315.177 310.331 315.22 310.203 315.284C308.9 315.753 307.512 316.052 306.081 316.137C305.953 316.137 305.825 316.159 305.697 316.159C305.547 316.159 305.419 316.159 305.27 316.159C303.454 316.159 301.681 315.817 300.016 315.177C299.887 315.134 299.781 315.092 299.653 315.028C299.076 314.772 298.499 314.494 297.965 314.174C297.88 314.131 297.794 314.067 297.709 314.025C297.602 313.961 297.495 313.897 297.389 313.811C295.894 312.851 294.612 311.613 293.565 310.162C293.501 310.077 293.437 309.97 293.373 309.885C293.309 309.778 293.224 309.671 293.16 309.565C293.032 309.372 292.903 309.159 292.775 308.967C292.07 307.751 291.536 306.449 291.216 305.083C290.96 303.995 290.81 302.842 290.81 301.711C290.81 300.964 290.874 300.217 290.981 299.513C291.003 299.385 291.024 299.257 291.045 299.129C291.729 295.394 293.865 292.129 296.833 289.995C296.94 289.91 297.047 289.846 297.154 289.782C298.029 289.184 298.969 288.672 299.973 288.288C300.101 288.245 300.208 288.203 300.336 288.16C301.831 287.627 303.412 287.306 305.077 287.285C305.141 287.285 305.206 287.285 305.27 287.285C305.334 287.285 305.398 287.285 305.462 287.285C307.021 287.306 308.516 287.563 309.904 288.053C309.947 288.075 309.968 288.075 310.011 288.096C310.139 288.139 310.246 288.181 310.374 288.224C311.015 288.459 311.613 288.758 312.211 289.078C312.83 289.419 313.407 289.782 313.962 290.209C314.069 290.294 314.176 290.358 314.261 290.443C314.795 290.87 315.308 291.34 315.778 291.852C316.248 292.343 316.675 292.876 317.059 293.41C317.422 293.922 317.764 294.477 318.063 295.032C318.127 295.138 318.191 295.266 318.234 295.373C318.661 296.248 319.024 297.187 319.259 298.147C319.28 298.275 319.323 298.403 319.345 298.532C319.579 299.556 319.708 300.623 319.708 301.733C319.708 302.394 319.665 303.034 319.579 303.653C319.558 303.781 319.537 303.909 319.515 304.037C319.345 305.126 319.024 306.193 318.618 307.217Z" fill="#202E51"/>
<path d="M345.881 272.916L336.016 303.752L337.684 304.284L347.55 273.449L345.881 272.916Z" fill="#739CF3"/>
<path d="M338.503 304.357L361.805 302.351L318.619 273.179L321.075 278.215L356.743 301.028L338.354 302.629L338.503 304.357Z" fill="#739CF3"/>
<path d="M335.363 302.992L336.837 302.053L318.917 273.371L316.846 275.526L335.363 302.992Z" fill="#739CF3"/>
<path d="M306.637 300.922L316.611 279.581L315.265 279.048C314.39 278.706 313.407 279.133 313.066 279.987L305.014 300.26L306.637 300.922Z" fill="#415DA5"/>
<path d="M316.61 279.581C318.062 275.847 320.454 269.957 320.433 270.021L318.981 269.06C318.917 269.167 318.853 269.231 315.072 279.048L316.61 279.581Z" fill="#415DA5"/>
<path d="M325.004 272.048C325.581 271.258 325.389 270.149 324.599 269.572C323.808 268.996 322.698 269.188 322.121 269.978C321.544 270.768 321.737 271.877 322.527 272.453C323.317 273.03 324.428 272.859 325.004 272.048Z" fill="#415DA5"/>
<path d="M318.276 267.417C318.853 266.628 318.66 265.518 317.87 264.942C317.08 264.365 315.969 264.558 315.393 265.347C314.816 266.137 315.008 267.246 315.798 267.823C316.61 268.399 317.721 268.207 318.276 267.417Z" fill="#415DA5"/>
<path d="M316.568 268.057L323.317 272.347L324.257 270.511L317.508 266.201L316.568 268.057Z" fill="#415DA5"/>
<path d="M327.696 308.476H331.477C331.925 308.476 332.288 308.113 332.288 307.665C332.288 307.217 331.925 306.854 331.477 306.854H327.696C327.248 306.854 326.885 307.217 326.885 307.665C326.885 308.113 327.248 308.476 327.696 308.476Z" fill="#415DA5"/>
<path d="M336.957 303.392L329.299 306.879L329.582 307.5L337.24 304.014L336.957 303.392Z" fill="#415DA5"/>
<path d="M362.124 301.69C362.124 300.111 360.843 298.83 359.262 298.83C357.682 298.83 356.4 300.111 356.4 301.69C356.4 303.269 357.682 304.55 359.262 304.55C360.843 304.55 362.124 303.269 362.124 301.69Z" fill="#415DA5"/>
<path d="M364.072 287.924L359.217 301.442L359.579 301.571L364.434 288.054L364.072 287.924Z" fill="#415DA5"/>
<path d="M372.974 307.772L373.123 307.43L359.39 301.54L350.377 288.651L350.057 288.864L359.134 301.839L359.198 301.861L372.974 307.772Z" fill="#415DA5"/>
<path d="M364.708 316.586L365.072 316.457C364.965 316.159 359.668 302.202 359.433 301.626L359.305 301.263L350.762 314.772L351.082 314.985L359.219 302.117C361.163 307.238 364.644 316.372 364.708 316.586Z" fill="#415DA5"/>
<path d="M374.464 297.894L359.225 300.513L359.29 300.892L374.529 298.273L374.464 297.894Z" fill="#415DA5"/>
<path d="M354.003 287.165L353.639 287.286L358.105 300.667L358.47 300.546L354.003 287.165Z" fill="#415DA5"/>
<path d="M359.305 301.882L359.348 301.861L373.337 294.776L373.145 294.434L359.241 301.476L344.248 298.98L344.184 299.364L359.305 301.882Z" fill="#415DA5"/>
<path d="M353.625 316.095C353.71 315.86 357.298 307.025 359.306 302.095L367.059 314.281L367.379 314.067L359.22 301.242L359.071 301.583C358.836 302.159 353.347 315.647 353.24 315.945L353.625 316.095Z" fill="#415DA5"/>
<path d="M359.285 301.513L359.229 301.893L374.27 304.128L374.326 303.748L359.285 301.513Z" fill="#415DA5"/>
<path d="M368.235 289.842L359.887 299.444L360.177 299.696L368.525 290.094L368.235 289.842Z" fill="#415DA5"/>
<path d="M358.989 302.753L358.605 302.785L359.774 316.843L360.157 316.811L358.989 302.753Z" fill="#415DA5"/>
<path d="M359.826 300.78L346.539 309.985L346.758 310.301L360.045 301.096L359.826 300.78Z" fill="#415DA5"/>
<path d="M370.283 312.104L370.561 311.827L359.455 300.644V286.069H359.07V300.794L370.283 312.104Z" fill="#415DA5"/>
<path d="M359.262 284.916C356.699 284.916 354.264 285.492 352.086 286.538C349.63 287.712 347.494 289.44 345.871 291.596C345.443 292.151 345.059 292.748 344.717 293.346C343.308 295.8 342.496 298.66 342.496 301.69C342.496 301.882 342.496 302.074 342.496 302.266C342.517 302.842 342.56 303.44 342.646 303.995C342.945 306.15 343.671 308.22 344.76 310.098C346.127 312.467 348.071 314.451 350.399 315.903C350.527 315.988 350.655 316.073 350.783 316.137C352.727 317.268 354.862 318.015 357.105 318.293C357.831 318.378 358.557 318.442 359.283 318.442C360.031 318.442 360.757 318.399 361.462 318.293C369.685 317.226 376.071 310.162 376.071 301.669C376.049 292.449 368.531 284.916 359.262 284.916ZM372.632 307.217C372.589 307.345 372.525 307.452 372.483 307.58C371.863 308.946 371.052 310.205 370.048 311.314C369.962 311.421 369.877 311.506 369.792 311.592C369.023 312.424 368.147 313.15 367.186 313.769C367.079 313.833 366.972 313.918 366.865 313.982C366.139 314.43 365.392 314.814 364.58 315.134C364.452 315.177 364.345 315.22 364.217 315.284C362.914 315.753 361.526 316.052 360.074 316.137C359.946 316.137 359.817 316.159 359.689 316.159C359.54 316.159 359.412 316.159 359.262 316.159C357.447 316.159 355.674 315.817 354.008 315.177C353.88 315.134 353.773 315.092 353.645 315.028C353.068 314.772 352.492 314.494 351.958 314.174C351.872 314.131 351.787 314.067 351.701 314.025C351.595 313.961 351.488 313.897 351.381 313.811C349.801 312.787 348.434 311.442 347.366 309.906C347.302 309.799 347.216 309.693 347.152 309.586C347.024 309.394 346.896 309.18 346.768 308.988C345.849 307.409 345.23 305.659 344.974 303.845C344.888 303.269 344.845 302.693 344.824 302.095C344.824 301.967 344.824 301.839 344.824 301.711C344.824 300.964 344.888 300.217 344.995 299.513C345.016 299.385 345.038 299.257 345.059 299.129C345.358 297.528 345.913 295.992 346.704 294.626C347.045 294.029 347.408 293.452 347.836 292.919C348.69 291.809 349.715 290.828 350.847 289.995C350.954 289.91 351.061 289.846 351.167 289.782C352.043 289.184 352.983 288.672 353.987 288.288C354.115 288.245 354.222 288.203 354.35 288.16C355.247 287.84 356.187 287.584 357.169 287.456C357.788 287.37 358.429 287.306 359.091 287.306C359.155 287.306 359.219 287.306 359.283 287.306C359.348 287.306 359.412 287.306 359.476 287.306C361.078 287.328 362.594 287.605 364.025 288.117C364.153 288.16 364.26 288.203 364.388 288.245C365.669 288.736 366.887 289.398 367.955 290.23C368.062 290.315 368.168 290.379 368.254 290.465C369.813 291.703 371.116 293.282 372.055 295.053C372.12 295.16 372.184 295.288 372.226 295.394C372.654 296.269 373.017 297.208 373.252 298.169C373.273 298.297 373.316 298.425 373.337 298.553C373.572 299.577 373.7 300.644 373.7 301.754C373.7 302.415 373.657 303.056 373.572 303.675C373.551 303.803 373.529 303.931 373.508 304.059C373.358 305.126 373.059 306.193 372.632 307.217Z" fill="#202E51"/>
<path d="M345.594 284.468C345.851 284.554 346.107 284.532 346.342 284.383C354.201 279.645 365.073 281.416 368.212 282.078C368.383 282.121 368.554 281.993 368.554 281.801V281.182C368.554 280.712 368.212 280.307 367.742 280.243C366.034 279.987 362.061 279.453 359.84 279.432C359.776 279.432 359.712 279.432 359.669 279.432C354.693 279.432 350.4 280.328 346.876 282.078C346.15 282.441 345.317 282.483 344.569 282.227L343.608 281.886C343.053 281.694 342.455 281.993 342.262 282.526C342.134 282.889 342.326 283.273 342.69 283.401L345.594 284.468Z" fill="#F99746"/>
<path d="M352.877 272.517C352.877 272.517 353.198 271.088 352.301 270.981C351.404 270.874 348.136 271.579 347.26 271.493C346.385 271.386 341.835 270.64 341.024 271.429C340.233 272.197 340.554 272.88 342.156 273.03C343.758 273.179 345.893 273.435 346.491 273.947C347.111 274.459 351.51 275.975 352.877 272.517Z" fill="#F99746"/>
<path d="M336.859 308.369C339.265 308.369 341.216 306.42 341.216 304.016C341.216 301.612 339.265 299.663 336.859 299.663C334.453 299.663 332.502 301.612 332.502 304.016C332.502 306.42 334.453 308.369 336.859 308.369Z" fill="#2C3A64"/>
<path d="M321.629 267.033C321.629 267.033 320.198 265.219 319.408 265.454C318.062 265.838 317.955 267.076 317.977 267.332C318.02 267.588 317.998 268.57 318.596 268.783C319.194 268.996 319.814 268.74 320.091 268.505C320.39 268.271 321.629 267.033 321.629 267.033Z" fill="#E8945B"/>
<path d="M319.217 265.561C319.217 265.561 319.409 266.692 320.776 267.054C322.143 267.417 330.601 263.853 332.608 262.872C333.697 262.338 335.257 259.329 336.453 256.704C336.73 256.064 337.008 255.445 337.243 254.89C337.841 253.503 338.225 252.479 338.225 252.479C338.225 251.092 336.709 251.647 335.321 252.265C334.894 252.457 332.694 251.54 332.117 252.65C331.839 253.183 331.498 253.119 331.22 253.695C330.152 256.043 329.17 258.71 328.956 259.35C328.593 260.503 319.217 265.561 319.217 265.561Z" fill="#E8945B"/>
<path d="M322.698 268.079C322.698 268.079 321.267 266.286 320.477 266.5C318.619 266.969 318.875 268.292 318.897 268.548C318.939 268.804 319.067 269.615 319.665 269.829C320.263 270.042 320.883 269.786 321.16 269.551C321.438 269.316 322.698 268.079 322.698 268.079Z" fill="#FFB27D"/>
<path d="M339.037 250.217L334.21 251.988C333.591 251.39 332.971 250.43 332.48 249.577C331.861 248.488 331.434 247.549 331.434 247.549L334.808 245.18L335.876 244.433C335.94 246.589 339.037 250.217 339.037 250.217Z" fill="#FFB27D"/>
<path d="M336.132 245.607C336.132 245.607 335.171 248.574 332.48 249.577C331.861 248.488 331.434 247.549 331.434 247.549L334.808 245.18L336.132 245.607Z" fill="#E8945B"/>
<path d="M329.917 247.464C329.917 247.464 335.876 248.403 336.41 244.668C336.944 240.955 338.054 238.565 334.274 237.797C330.493 237.05 329.554 238.351 329.063 239.568C328.593 240.784 328.379 247.122 329.917 247.464Z" fill="#FFB27D"/>
<path d="M337.754 237.135C337.754 237.135 337.477 237.199 337.263 237.412C337.242 236.602 336.451 235.791 336.451 235.791C336.836 236.26 336.708 237.156 336.708 237.156C335.576 235.236 330.108 236.751 329.595 236.879C329.083 237.007 328.72 236.239 328.72 236.239C327.908 236.943 327.609 238.65 328.271 239.781C328.933 240.912 331.112 242.556 331.753 242.235C332.372 241.915 332.372 242.577 332.351 243.473C332.308 244.391 333.888 245.906 335.02 246.141C335.917 246.311 335.981 245.714 336.238 245.308C336.302 245.202 336.366 245.116 336.451 245.052C337.669 243.943 338.352 241.745 338.075 239.589C337.968 238.736 337.605 238.01 337.412 237.647C337.477 237.519 337.626 237.263 337.754 237.135Z" fill="#2C3A64"/>
<path d="M335.684 270.106C335.748 270.383 336.41 272.603 338.118 273.179C339.229 273.563 341.941 274.481 344.334 274.652C344.889 274.182 345.316 273.67 345.551 273.094C346.939 269.722 344.675 267.204 344.675 267.204C344.675 267.204 339.977 268.271 335.684 270.106Z" fill="#2C3A64"/>
<path d="M349.246 262.253C349.246 262.253 354.073 267.823 349.652 274.075C345.21 280.328 337.991 285.386 337.585 287.605C336.816 291.916 332.203 300.836 330.024 305.254L328.145 304.528C328.145 304.528 331.669 283.615 332.929 281.118C334.189 278.621 340.66 266.905 340.66 266.905L349.246 262.253Z" fill="#FFB27D"/>
<path d="M331.178 253.439C331.648 253.589 332.78 254.015 333.079 254.528C333.399 255.04 336.709 253.61 337.094 252.265C336.154 251.22 334.531 250.345 333.57 250.644C333.015 250.814 332.117 252.009 331.178 253.439Z" fill="#5885D6"/>
<path d="M350.207 263.981C350.207 263.981 343.928 268.441 339.742 268.207C339.742 268.207 336.987 272.902 336.367 274.438C336.367 274.438 343.501 278.002 347.217 277.34C347.217 277.34 352.044 272.646 351.766 269.359C351.489 266.073 350.207 263.981 350.207 263.981Z" fill="#35488B"/>
<path d="M332.992 255.573L334.487 257.707L334.615 257.985L337.734 265.112L339.336 268.74C340.403 268.996 342.39 268.826 343.265 268.505C348.114 266.862 350.207 263.981 350.207 263.981C347.387 256.64 343.5 251.625 342.71 250.729C341.322 249.235 337.712 247.997 337.712 247.997C336.73 249.022 333.184 250.814 333.184 250.814C332.394 251.412 332.992 255.573 332.992 255.573Z" fill="#739AF0"/>
<path d="M334.615 257.985L337.734 265.112C340.104 260.332 338.609 253.375 338.609 253.375C338.609 253.375 334.786 256.683 334.658 256.939C334.637 256.982 334.615 257.366 334.615 257.985Z" fill="#5885D6"/>
<path d="M320.264 266.628C320.264 266.628 320.456 267.759 321.823 268.121C323.19 268.484 331.647 264.92 333.655 263.939C334.744 263.405 336.303 260.396 337.5 257.771C337.777 257.131 338.055 256.512 338.29 255.957C338.888 254.57 339.272 253.546 339.272 253.546C339.272 252.159 336.004 250.281 334.638 250.921C334.21 251.113 333.655 251.967 333.078 253.098C332.801 253.631 332.544 254.186 332.267 254.784C331.199 257.131 330.216 259.799 330.003 260.439C329.661 261.549 320.264 266.628 320.264 266.628Z" fill="#FFB27D"/>
<path d="M332.287 254.784C333.547 255.36 335.811 256.47 337.52 257.771C337.797 257.131 338.075 256.512 338.31 255.957C338.908 254.57 339.292 253.546 339.292 253.546C339.292 252.159 336.025 250.281 334.658 250.921C334.231 251.113 333.675 251.967 333.099 253.098C332.821 253.631 332.565 254.186 332.287 254.784Z" fill="#739AF0"/>
<path d="M330.749 306.961H329.617C329.233 306.918 328.955 306.812 328.571 306.769C327.994 306.705 327.716 306.918 327.652 306.961H322.868C322.74 306.812 322.868 306.449 322.975 306.193C323.06 306.022 323.21 305.894 323.423 305.83C323.936 305.702 324.918 305.595 325.837 304.848C326.349 304.443 328.314 303.333 328.314 303.333C328.357 303.333 328.571 303.397 329.468 304.059C329.938 304.4 330.728 303.568 330.728 303.568C330.728 303.568 330.877 303.675 330.984 303.888C331.07 304.037 331.134 304.272 331.091 304.528C331.027 304.912 331.24 305.617 331.433 306.086C331.539 306.385 331.646 306.577 331.646 306.577C331.646 306.577 331.71 306.854 330.749 306.961Z" fill="#739CF3"/>
<path d="M331.006 303.909C330.728 304.08 330.173 304.4 329.788 304.443C329.276 304.507 328.336 303.354 328.336 303.354C328.379 303.354 328.592 303.418 329.489 304.08C329.959 304.421 330.749 303.589 330.749 303.589C330.749 303.589 330.899 303.717 331.006 303.909Z" fill="#415DA5"/>
<path d="M330.749 306.961H329.617C329.233 306.918 328.955 306.812 328.571 306.769C327.994 306.705 327.716 306.918 327.652 306.961H322.868C322.74 306.812 322.868 306.449 322.975 306.193C323.124 306.086 323.167 306.684 323.231 306.79C323.317 306.897 327.118 306.833 327.353 306.684C327.567 306.534 328.229 306.299 329.147 306.491C329.959 306.662 331.134 306.235 331.433 306.107C331.539 306.406 331.646 306.598 331.646 306.598C331.646 306.598 331.71 306.854 330.749 306.961Z" fill="#415DA5"/>
<path d="M498.686 303.781C499.092 303.781 499.434 303.44 499.434 303.034C499.434 293.794 491.916 286.282 482.668 286.282C480.532 286.282 478.46 286.688 476.495 287.456C476.111 287.605 475.919 288.032 476.068 288.416C476.218 288.8 476.645 288.992 477.029 288.843C478.823 288.139 480.703 287.776 482.668 287.776C491.083 287.776 497.939 294.626 497.939 303.034C497.939 303.44 498.259 303.781 498.686 303.781Z" fill="#2C3A64"/>
<path d="M512.12 267.652C512.12 267.652 510.988 270.021 509.557 273.286C507.956 276.956 505.969 281.779 504.773 285.685C504.154 287.755 503.748 289.569 503.748 290.849C503.748 291.276 505.414 293.047 505.905 293.709C508.959 297.955 513.124 303.611 513.124 303.611L514.256 303.333C514.256 303.333 512.654 296.248 510.348 292.706C509.899 292.001 508.596 291.169 508.66 291.084C508.853 290.828 509.365 290.209 510.049 289.312C511.928 286.837 515.196 282.334 517.396 278.13C517.524 277.874 517.673 277.618 517.802 277.34C518.955 274.993 519.724 272.795 519.638 271.173L512.12 267.652Z" fill="#E8945B"/>
<path d="M515.26 303.611L514.47 304.101C514.193 304.229 513.936 304.272 513.659 304.4C513.21 304.614 513.125 304.891 513.125 304.955V304.976L509.793 307.089C509.643 307.025 509.537 306.705 509.494 306.449C509.451 306.278 509.515 306.107 509.622 305.958C509.9 305.638 510.54 305.104 510.818 304.123C510.968 303.568 511.801 301.839 511.801 301.839C511.822 301.818 511.993 301.775 512.954 301.903C513.445 301.967 513.573 300.964 513.573 300.964C513.573 300.964 513.723 300.986 513.915 301.092C514.064 301.178 514.214 301.327 514.299 301.562C514.449 301.903 514.961 302.351 515.325 302.65C515.538 302.821 515.709 302.949 515.709 302.949C515.709 302.949 515.88 303.098 515.26 303.611Z" fill="#B84C42"/>
<path d="M513.915 301.092C513.808 301.348 513.573 301.861 513.338 302.053C513.018 302.33 511.779 301.839 511.779 301.839C511.801 301.818 511.972 301.775 512.933 301.903C513.424 301.967 513.552 300.964 513.552 300.964C513.552 300.964 513.744 300.986 513.915 301.092Z" fill="#AA3E39"/>
<path d="M515.261 303.611L514.471 304.101C514.193 304.229 513.937 304.272 513.659 304.4C513.21 304.614 513.125 304.891 513.125 304.955V304.976L509.793 307.089C509.644 307.025 509.537 306.705 509.494 306.449C509.537 306.299 509.879 306.748 509.964 306.79C510.071 306.833 512.698 305.104 512.783 304.891C512.869 304.678 513.21 304.187 513.937 303.952C514.577 303.739 515.197 302.864 515.325 302.65C515.538 302.821 515.709 302.949 515.709 302.949C515.709 302.949 515.88 303.098 515.261 303.611Z" fill="#AA3E39"/>
<path d="M518.567 277.283L509.631 305.212L511.136 305.693L520.072 277.764L518.567 277.283Z" fill="#F99746"/>
<path d="M511.907 305.787L533.009 303.952L493.881 277.533L496.123 282.099L528.417 302.757L511.779 304.208L511.907 305.787Z" fill="#F99746"/>
<path d="M509.067 304.55L510.391 303.675L494.18 277.703L492.279 279.667L509.067 304.55Z" fill="#F99746"/>
<path d="M506.846 300.836L503.877 302.544C503.535 302.736 503.407 303.184 503.599 303.547C503.792 303.888 504.24 304.016 504.603 303.824L507.572 302.117C507.914 301.925 508.042 301.455 507.85 301.114C507.657 300.751 507.209 300.644 506.846 300.836Z" fill="#415DA5"/>
<path d="M506.27 301.946L510.007 306.086L510.349 305.787L506.611 301.647L506.27 301.946Z" fill="#415DA5"/>
<path d="M518.314 287.776C518.528 287.861 518.784 287.819 518.977 287.712C526.089 283.422 535.935 285.023 538.775 285.621C538.925 285.663 539.074 285.535 539.074 285.364V284.81C539.074 284.383 538.754 284.02 538.348 283.956C536.81 283.721 533.201 283.23 531.193 283.23C531.129 283.23 531.087 283.23 531.022 283.23C526.516 283.23 522.629 284.041 519.446 285.621C518.784 285.941 518.037 285.983 517.353 285.749L516.478 285.45C515.986 285.279 515.431 285.535 515.26 286.047C515.154 286.367 515.324 286.73 515.645 286.837L518.314 287.776Z" fill="#35488B"/>
<path d="M524.936 276.935C524.936 276.935 525.213 275.633 524.402 275.548C523.59 275.462 520.621 276.103 519.831 276.017C519.041 275.932 514.919 275.249 514.193 275.953C513.467 276.658 513.766 277.276 515.218 277.404C516.67 277.533 518.592 277.767 519.148 278.237C519.703 278.706 523.676 280.072 524.936 276.935Z" fill="#415DA5"/>
<path d="M513.204 308.254C514.747 306.713 514.747 304.213 513.204 302.671C511.661 301.129 509.159 301.129 507.616 302.671C506.073 304.213 506.073 306.713 507.616 308.254C509.159 309.796 511.661 309.796 513.204 308.254Z" fill="#415DA5"/>
<path d="M535.999 290.942L531.605 303.175L531.927 303.29L536.321 291.058L535.999 290.942Z" fill="#415DA5"/>
<path d="M544.051 308.903L544.2 308.583L531.77 303.248L523.59 291.575L523.291 291.767L531.535 303.525L531.578 303.547L544.051 308.903Z" fill="#415DA5"/>
<path d="M536.576 316.863L536.917 316.756C536.832 316.5 532.026 303.845 531.813 303.312L531.685 302.992L523.932 315.22L524.231 315.412L531.599 303.76C533.372 308.412 536.511 316.671 536.576 316.863Z" fill="#415DA5"/>
<path d="M545.378 299.941L531.592 302.31L531.65 302.646L545.436 300.277L545.378 299.941Z" fill="#415DA5"/>
<path d="M526.881 290.27L526.557 290.378L530.602 302.505L530.926 302.397L526.881 290.27Z" fill="#415DA5"/>
<path d="M531.663 303.568L531.727 303.547L544.371 297.123L544.222 296.824L531.621 303.205L518.058 300.922L517.994 301.263L531.663 303.568Z" fill="#415DA5"/>
<path d="M526.537 316.436C526.623 316.223 529.869 308.241 531.684 303.76L538.711 314.793L539.01 314.601L531.62 302.992L531.492 303.312C531.279 303.824 526.302 316.052 526.217 316.308L526.537 316.436Z" fill="#415DA5"/>
<path d="M531.687 303.232L531.637 303.569L545.262 305.596L545.313 305.258L531.687 303.232Z" fill="#415DA5"/>
<path d="M539.769 292.663L532.205 301.362L532.463 301.586L540.027 292.887L539.769 292.663Z" fill="#415DA5"/>
<path d="M531.374 304.345L531.033 304.373L532.088 317.113L532.428 317.085L531.374 304.345Z" fill="#415DA5"/>
<path d="M532.175 302.572L520.135 310.914L520.329 311.195L532.37 302.853L532.175 302.572Z" fill="#415DA5"/>
<path d="M541.616 312.808L541.872 312.574L531.812 302.437V289.248H531.471V302.586L541.616 312.808Z" fill="#415DA5"/>
<path d="M531.641 305.958C533.068 305.958 534.225 304.802 534.225 303.376C534.225 301.95 533.068 300.794 531.641 300.794C530.214 300.794 529.057 301.95 529.057 303.376C529.057 304.802 530.214 305.958 531.641 305.958Z" fill="#2C3A64"/>
<path d="M544.051 294.605C541.296 290.721 536.768 288.181 531.642 288.181C526.516 288.181 521.967 290.742 519.212 294.626C518.849 295.138 518.529 295.672 518.23 296.227C517.098 298.361 516.436 300.794 516.436 303.376C516.436 303.504 516.436 303.653 516.436 303.803C516.457 304.336 516.5 304.848 516.564 305.382C516.82 307.366 517.482 309.287 518.486 311.016C519.81 313.278 521.69 315.156 523.932 316.479C525.726 317.525 527.713 318.207 529.763 318.442C529.784 318.442 529.806 318.442 529.806 318.442C530.404 318.506 531.002 318.549 531.6 318.549C532.219 318.549 532.817 318.506 533.415 318.442C533.436 318.442 533.458 318.442 533.479 318.442C537.815 317.909 541.595 315.54 544.009 312.147C545.76 309.671 546.807 306.641 546.807 303.376C546.849 300.111 545.803 297.08 544.051 294.605ZM544.564 305.467C544.457 306.193 544.265 306.876 544.051 307.559C543.966 307.836 543.859 308.113 543.752 308.369C543.71 308.476 543.667 308.583 543.603 308.69C543.048 309.927 542.3 311.08 541.403 312.083C541.318 312.168 541.253 312.253 541.168 312.339C540.463 313.086 539.673 313.747 538.819 314.302C538.712 314.366 538.626 314.43 538.52 314.494C537.858 314.9 537.174 315.241 536.448 315.54C536.341 315.583 536.234 315.625 536.128 315.668C534.953 316.095 533.693 316.372 532.39 316.436C532.283 316.436 532.155 316.457 532.048 316.457C531.92 316.457 531.792 316.457 531.664 316.457C530.019 316.457 528.417 316.159 526.901 315.561C526.794 315.518 526.687 315.476 526.581 315.433C526.047 315.22 525.534 314.964 525.043 314.665C524.957 314.622 524.893 314.58 524.808 314.537C524.701 314.473 524.616 314.409 524.509 314.345C523.078 313.406 521.839 312.211 520.878 310.802C520.814 310.696 520.75 310.61 520.686 310.503C520.558 310.333 520.451 310.141 520.344 309.949C519.49 308.476 518.934 306.854 518.7 305.19C518.635 304.678 518.593 304.144 518.571 303.611C518.571 303.525 518.571 303.461 518.571 303.376C518.571 302.693 518.614 302.031 518.721 301.391C518.742 301.284 518.764 301.156 518.785 301.05C519.02 299.748 519.447 298.532 520.045 297.379C520.323 296.846 520.643 296.312 521.006 295.821C521.839 294.648 522.864 293.623 524.039 292.77C524.146 292.706 524.231 292.642 524.317 292.578C525.107 292.044 525.961 291.575 526.88 291.212C526.986 291.169 527.093 291.126 527.2 291.084C528.545 290.593 529.998 290.315 531.493 290.294C531.557 290.294 531.6 290.294 531.664 290.294C531.728 290.294 531.771 290.294 531.835 290.294C533.287 290.315 534.675 290.572 535.957 291.02C536.063 291.062 536.17 291.105 536.277 291.148C537.452 291.596 538.541 292.193 539.523 292.94C539.609 293.004 539.716 293.09 539.801 293.154C541.211 294.285 542.407 295.693 543.24 297.315C543.304 297.422 543.347 297.528 543.411 297.635C543.667 298.147 543.881 298.66 544.051 299.214C544.158 299.535 544.244 299.833 544.329 300.175C544.35 300.281 544.393 300.409 544.414 300.516C544.628 301.455 544.735 302.415 544.735 303.418C544.735 304.016 544.692 304.592 544.607 305.168C544.607 305.254 544.585 305.36 544.564 305.467Z" fill="#202E51"/>
<path d="M544.585 300.452C544.564 300.345 544.521 300.217 544.5 300.111C544.372 299.641 544.222 299.172 544.051 298.724C543.902 298.318 543.731 297.934 543.539 297.55C543.496 297.443 543.432 297.336 543.368 297.23C542.514 295.608 541.318 294.178 539.887 293.026C539.801 292.962 539.694 292.876 539.609 292.812C537.43 291.148 534.739 290.145 531.813 290.081C531.707 290.081 531.621 290.081 531.514 290.081H531.45C529.913 290.081 528.439 290.358 527.072 290.828C526.965 290.87 526.858 290.913 526.752 290.956C525.812 291.318 524.936 291.767 524.103 292.321C523.996 292.385 523.911 292.449 523.804 292.513C522.587 293.367 521.519 294.413 520.665 295.608C520.301 296.099 519.981 296.632 519.682 297.166C519.063 298.339 518.593 299.62 518.336 300.964C518.315 301.071 518.294 301.199 518.272 301.306C518.166 302.01 518.102 302.714 518.102 303.461C518.102 303.525 518.102 303.589 518.102 303.632C518.102 304.165 518.144 304.699 518.208 305.211C518.465 307.238 519.191 309.095 520.259 310.738C520.323 310.845 520.387 310.93 520.451 311.037C521.455 312.488 522.736 313.747 524.231 314.708C524.338 314.772 524.423 314.836 524.53 314.9C525.107 315.262 525.726 315.561 526.367 315.839C526.474 315.881 526.581 315.924 526.687 315.967C528.182 316.543 529.806 316.863 531.493 316.863C531.664 316.863 531.856 316.863 532.027 316.863C532.134 316.863 532.262 316.863 532.39 316.842C533.736 316.756 535.017 316.457 536.213 316.009C536.32 315.967 536.427 315.924 536.533 315.881C537.281 315.583 537.986 315.22 538.648 314.793C538.755 314.729 538.84 314.665 538.947 314.601C539.823 314.025 540.613 313.32 541.318 312.574C541.403 312.488 541.489 312.403 541.553 312.317C542.471 311.272 543.218 310.098 543.774 308.818C543.817 308.711 543.859 308.604 543.902 308.497C543.945 308.412 543.966 308.327 544.009 308.241C544.329 307.388 544.585 306.47 544.735 305.531C544.756 305.424 544.778 305.296 544.778 305.19C544.842 304.635 544.884 304.08 544.884 303.504C544.927 302.437 544.799 301.434 544.585 300.452ZM544.244 305.424C544.201 305.745 544.137 306.065 544.051 306.363C543.902 307.004 543.71 307.644 543.453 308.263C543.411 308.369 543.368 308.476 543.325 308.583C542.791 309.799 542.087 310.909 541.232 311.912C541.147 311.997 541.083 312.083 540.997 312.168C540.314 312.915 539.545 313.577 538.712 314.131C538.605 314.195 538.52 314.259 538.413 314.323C537.772 314.729 537.11 315.07 536.405 315.369C536.299 315.412 536.192 315.454 536.085 315.497C534.932 315.924 533.693 316.201 532.411 316.287C532.305 316.308 532.176 316.308 532.048 316.308C531.877 316.308 531.728 316.329 531.557 316.329C529.934 316.329 528.396 316.031 526.965 315.476C526.858 315.433 526.752 315.39 526.645 315.348C526.025 315.092 525.449 314.793 524.893 314.451C524.787 314.387 524.701 314.323 524.594 314.259C523.163 313.342 521.946 312.147 520.985 310.738C520.921 310.632 520.857 310.546 520.793 310.439C519.789 308.882 519.105 307.089 518.849 305.168C518.785 304.656 518.742 304.123 518.742 303.589C518.742 303.547 518.742 303.504 518.742 303.461C518.742 302.757 518.806 302.074 518.913 301.412C518.935 301.306 518.956 301.178 518.977 301.071C519.212 299.791 519.639 298.596 520.237 297.486C520.515 296.952 520.857 296.419 521.198 295.928C522.031 294.776 523.057 293.794 524.21 292.962C524.317 292.898 524.402 292.834 524.509 292.77C525.278 292.257 526.132 291.809 527.008 291.468C527.115 291.425 527.221 291.382 527.328 291.34C528.652 290.87 530.062 290.614 531.536 290.614H531.6C531.707 290.614 531.792 290.614 531.899 290.614C533.308 290.636 534.654 290.913 535.914 291.34C536.021 291.382 536.128 291.425 536.234 291.468C537.345 291.895 538.392 292.492 539.353 293.196C539.438 293.26 539.545 293.346 539.63 293.41C541.019 294.52 542.151 295.885 542.984 297.443C543.048 297.55 543.09 297.657 543.154 297.763C543.539 298.532 543.838 299.342 544.051 300.175C544.073 300.281 544.116 300.409 544.137 300.516V300.538C544.35 301.477 544.457 302.437 544.457 303.44C544.457 303.973 544.415 304.528 544.35 305.04C544.265 305.19 544.244 305.318 544.244 305.424Z" fill="#B84C42"/>
<path d="M486.417 290.928L482.023 303.16L482.345 303.276L486.739 291.044L486.417 290.928Z" fill="#415DA5"/>
<path d="M494.479 308.903L494.607 308.583L482.177 303.248L474.018 291.575L473.719 291.767L481.942 303.525L482.006 303.547L494.479 308.903Z" fill="#415DA5"/>
<path d="M487.003 316.863L487.345 316.756C487.26 316.5 482.454 303.845 482.24 303.312L482.112 302.992L474.359 315.22L474.658 315.412L482.027 303.76C483.778 308.412 486.939 316.671 487.003 316.863Z" fill="#415DA5"/>
<path d="M495.808 299.939L482.021 302.308L482.079 302.644L495.866 300.275L495.808 299.939Z" fill="#415DA5"/>
<path d="M477.307 290.266L476.982 290.374L481.028 302.501L481.352 302.393L477.307 290.266Z" fill="#415DA5"/>
<path d="M482.091 303.568L482.155 303.547L494.799 297.123L494.649 296.824L482.048 303.205L468.465 300.922L468.422 301.263L482.091 303.568Z" fill="#415DA5"/>
<path d="M476.965 316.436C477.05 316.223 480.297 308.241 482.112 303.76L489.139 314.793L489.438 314.601L482.048 302.992L481.92 303.312C481.706 303.824 476.73 316.052 476.645 316.308L476.965 316.436Z" fill="#415DA5"/>
<path d="M482.109 303.225L482.059 303.563L495.684 305.589L495.735 305.251L482.109 303.225Z" fill="#415DA5"/>
<path d="M490.194 292.657L482.631 301.356L482.889 301.58L490.452 292.881L490.194 292.657Z" fill="#415DA5"/>
<path d="M481.802 304.346L481.461 304.374L482.516 317.114L482.857 317.085L481.802 304.346Z" fill="#415DA5"/>
<path d="M482.599 302.563L470.559 310.904L470.753 311.185L482.794 302.843L482.599 302.563Z" fill="#415DA5"/>
<path d="M492.043 312.808L492.3 312.574L482.24 302.437V289.248H481.898V302.586L492.043 312.808Z" fill="#415DA5"/>
<path d="M482.069 305.958C483.496 305.958 484.653 304.802 484.653 303.376C484.653 301.95 483.496 300.794 482.069 300.794C480.641 300.794 479.484 301.95 479.484 303.376C479.484 304.802 480.641 305.958 482.069 305.958Z" fill="#2C3A64"/>
<path d="M490.015 290.443C489.631 290.187 489.204 289.974 488.798 289.761C488.157 289.44 487.495 289.163 486.812 288.95C485.317 288.459 483.736 288.203 482.092 288.203C479.828 288.203 477.671 288.694 475.727 289.59C475.449 289.718 475.172 289.846 474.915 289.995C470.131 292.556 466.885 297.593 466.885 303.397C466.885 306.086 467.59 308.711 468.935 311.037C470.259 313.299 472.139 315.177 474.381 316.5C474.552 316.607 474.723 316.692 474.894 316.799C476.539 317.695 478.354 318.25 480.212 318.485C480.233 318.485 480.255 318.485 480.255 318.485C480.853 318.549 481.451 318.592 482.049 318.592C482.668 318.592 483.266 318.549 483.864 318.485C483.886 318.485 483.907 318.485 483.928 318.485C491.425 317.567 497.256 311.144 497.256 303.418C497.277 297.913 494.372 293.111 490.015 290.443ZM494.992 305.467C494.821 306.491 494.543 307.452 494.159 308.369C494.116 308.476 494.073 308.583 494.031 308.69C493.475 309.927 492.728 311.08 491.831 312.083C491.745 312.168 491.681 312.253 491.596 312.339C490.891 313.086 490.101 313.747 489.247 314.302C489.14 314.366 489.054 314.43 488.948 314.494C488.285 314.9 487.602 315.241 486.876 315.54C486.769 315.583 486.662 315.625 486.555 315.668C485.381 316.095 484.121 316.372 482.818 316.436C482.711 316.436 482.583 316.457 482.476 316.457C482.348 316.457 482.22 316.457 482.092 316.457C480.447 316.457 478.845 316.159 477.329 315.561C477.222 315.518 477.115 315.476 477.008 315.433C476.474 315.22 475.962 314.964 475.471 314.665C475.385 314.622 475.321 314.58 475.236 314.537C475.129 314.473 475.043 314.409 474.937 314.345C474.937 314.345 474.915 314.345 474.915 314.323C473.484 313.384 472.267 312.189 471.306 310.802C471.242 310.696 471.178 310.61 471.114 310.503C470.985 310.333 470.879 310.141 470.772 309.949C469.619 307.964 468.999 305.681 468.999 303.376C468.999 302.693 469.042 302.031 469.149 301.391C469.17 301.284 469.191 301.156 469.213 301.05C469.832 297.657 471.754 294.712 474.445 292.77C474.531 292.706 474.638 292.642 474.723 292.578C474.787 292.535 474.851 292.492 474.915 292.449C475.663 291.959 476.453 291.553 477.286 291.212C477.393 291.169 477.5 291.126 477.606 291.084C478.952 290.593 480.404 290.315 481.899 290.294C481.963 290.294 482.006 290.294 482.07 290.294C482.134 290.294 482.198 290.294 482.241 290.294C483.544 290.315 484.825 290.529 486.021 290.892C486.15 290.934 486.256 290.977 486.385 290.998C486.491 291.041 486.598 291.084 486.705 291.126C487.132 291.276 487.538 291.468 487.944 291.66C488.649 292.023 489.332 292.428 489.951 292.919C490.037 292.983 490.144 293.068 490.229 293.132C491.639 294.263 492.835 295.672 493.668 297.294C493.732 297.4 493.774 297.507 493.817 297.614C494.202 298.403 494.522 299.257 494.757 300.132C494.778 300.239 494.821 300.367 494.842 300.473C495.056 301.412 495.163 302.373 495.163 303.376C495.163 303.973 495.12 304.55 495.035 305.126C495.035 305.254 495.013 305.36 494.992 305.467Z" fill="#1D2A4C"/>
<path d="M494.992 300.452C494.97 300.345 494.927 300.217 494.906 300.111C494.671 299.214 494.351 298.361 493.945 297.55C493.902 297.443 493.838 297.336 493.774 297.23C492.92 295.608 491.724 294.178 490.293 293.026C490.207 292.962 490.101 292.876 490.015 292.812C489.374 292.321 488.691 291.895 487.965 291.532C487.345 291.212 486.705 290.956 486.043 290.742C485.551 290.572 485.039 290.443 484.505 290.358C483.757 290.209 482.988 290.123 482.198 290.102C482.091 290.102 482.006 290.102 481.899 290.102H481.835C481.472 290.102 481.13 290.123 480.767 290.145C479.614 290.251 478.503 290.486 477.457 290.849C477.35 290.892 477.243 290.934 477.115 290.977C476.303 291.276 475.556 291.66 474.83 292.108C474.701 292.172 474.595 292.257 474.467 292.343C474.36 292.407 474.274 292.471 474.168 292.535C471.37 294.498 469.362 297.507 468.721 300.986C468.7 301.092 468.679 301.22 468.657 301.327C468.55 302.031 468.486 302.736 468.486 303.482C468.486 306.171 469.277 308.668 470.644 310.76C470.708 310.866 470.772 310.952 470.836 311.058C471.84 312.509 473.121 313.769 474.616 314.729C474.68 314.772 474.744 314.814 474.83 314.857C474.851 314.878 474.894 314.9 474.915 314.921C475.492 315.284 476.111 315.583 476.752 315.86C476.859 315.903 476.965 315.945 477.072 315.988C478.567 316.564 480.19 316.884 481.878 316.884C482.049 316.884 482.241 316.884 482.412 316.884C482.54 316.884 482.647 316.884 482.775 316.863C484.12 316.778 485.402 316.479 486.598 316.031C486.705 315.988 486.811 315.945 486.918 315.903C487.666 315.604 488.371 315.241 489.033 314.814C489.139 314.75 489.225 314.686 489.332 314.622C490.207 314.046 490.998 313.342 491.702 312.595C491.788 312.51 491.873 312.424 491.937 312.339C492.856 311.293 493.603 310.119 494.159 308.839C494.201 308.732 494.244 308.626 494.287 308.519C494.671 307.58 494.949 306.577 495.098 305.553C495.12 305.446 495.141 305.318 495.141 305.211C495.205 304.656 495.248 304.101 495.248 303.525C495.333 302.437 495.226 301.434 494.992 300.452ZM494.65 305.424C494.5 306.406 494.223 307.366 493.86 308.263C493.817 308.369 493.774 308.476 493.731 308.583C493.197 309.799 492.493 310.909 491.638 311.912C491.553 311.997 491.489 312.083 491.403 312.168C490.72 312.915 489.951 313.577 489.118 314.131C489.011 314.195 488.926 314.259 488.819 314.323C488.178 314.729 487.516 315.07 486.811 315.369C486.705 315.412 486.598 315.454 486.491 315.497C485.338 315.924 484.099 316.201 482.818 316.287C482.711 316.308 482.583 316.308 482.454 316.308C482.284 316.308 482.134 316.329 481.963 316.329C480.34 316.329 478.802 316.031 477.371 315.476C477.264 315.433 477.158 315.39 477.051 315.348C476.453 315.092 475.855 314.793 475.299 314.451C475.193 314.387 475.107 314.323 475 314.259C474.979 314.238 474.936 314.217 474.915 314.195C473.527 313.278 472.331 312.104 471.391 310.738C471.327 310.632 471.263 310.546 471.199 310.439C469.896 308.433 469.127 306.043 469.127 303.461C469.127 302.757 469.191 302.074 469.298 301.412C469.319 301.306 469.341 301.178 469.362 301.071C470.003 297.742 471.925 294.861 474.595 292.983C474.702 292.919 474.787 292.855 474.872 292.791C474.894 292.791 474.894 292.77 474.915 292.77C475.684 292.257 476.496 291.831 477.371 291.51C477.478 291.468 477.585 291.425 477.692 291.382C479.016 290.913 480.425 290.657 481.899 290.657H481.963C482.07 290.657 482.155 290.657 482.262 290.657C483.522 290.678 484.74 290.892 485.893 291.276C486.021 291.318 486.128 291.361 486.256 291.404C486.363 291.446 486.47 291.489 486.576 291.532C486.982 291.681 487.388 291.873 487.773 292.065C488.435 292.407 489.075 292.812 489.673 293.26C489.759 293.324 489.866 293.41 489.951 293.474C491.339 294.584 492.471 295.949 493.304 297.507C493.368 297.614 493.411 297.721 493.475 297.827C493.86 298.596 494.159 299.406 494.372 300.239C494.393 300.345 494.436 300.473 494.458 300.58C494.671 301.519 494.799 302.501 494.799 303.504C494.799 304.037 494.757 304.592 494.693 305.104C494.693 305.19 494.671 305.318 494.65 305.424Z" fill="#B84C42"/>
<path d="M521.432 267.695C521.432 267.695 524.657 272.795 520.685 275.591C516.712 278.386 503.342 279.731 503.983 280.285C505.99 281.95 507.806 284.511 507.72 299.812L506.738 300.324C506.738 300.324 497.191 279.581 497.832 277.106C498.237 275.462 512.141 266.606 521.432 267.695Z" fill="#FFB27D"/>
<path d="M513.702 278.301C513.702 278.301 521.818 276.956 522.651 274.097C523.27 271.963 523.462 271.088 519.789 264.195C519.789 264.195 518.251 267.118 510.242 266.435C510.242 266.435 510.284 266.82 510.284 267.332C510.284 268.185 510.135 269.38 509.473 269.743C509.473 269.743 509.451 269.743 509.43 269.765C508.383 270.255 506.739 271.216 506.504 271.301C506.483 271.28 511.416 272.219 513.702 278.301Z" fill="#35488B"/>
<path d="M509.473 269.722C513.039 268.676 516.542 268.783 518.593 266.862C515.56 266.094 511.929 267.31 510.284 267.31C510.263 268.164 510.135 269.359 509.473 269.722Z" fill="#2C3A64"/>
<path d="M509.045 300.538L508.213 300.943C507.914 301.029 507.657 301.05 507.358 301.157C506.888 301.306 506.782 301.583 506.76 301.647V301.669L503.215 303.376C503.065 303.291 503.001 302.949 502.98 302.693C502.958 302.522 503.044 302.352 503.172 302.224C503.492 301.925 504.197 301.477 504.582 300.538C504.795 300.004 505.82 298.382 505.82 298.382C505.863 298.361 506.034 298.34 506.974 298.574C507.465 298.702 507.7 297.721 507.7 297.721C507.7 297.721 507.849 297.763 508.02 297.892C508.148 297.998 508.277 298.148 508.362 298.404C508.469 298.745 508.917 299.257 509.238 299.599C509.43 299.812 509.601 299.94 509.601 299.94C509.601 299.94 509.729 300.111 509.045 300.538Z" fill="#B84C42"/>
<path d="M507.999 297.87C507.871 298.105 507.572 298.574 507.315 298.745C506.952 298.98 505.799 298.361 505.799 298.361C505.842 298.339 506.012 298.318 506.952 298.553C507.443 298.681 507.678 297.699 507.678 297.699C507.678 297.699 507.849 297.742 507.999 297.87Z" fill="#AA3E39"/>
<path d="M509.046 300.538L508.213 300.943C507.914 301.028 507.658 301.05 507.359 301.156C506.889 301.306 506.782 301.583 506.761 301.647V301.669L503.215 303.376C503.066 303.29 503.002 302.949 502.98 302.693C503.045 302.544 503.322 303.034 503.408 303.098C503.514 303.141 506.312 301.733 506.419 301.541C506.526 301.348 506.91 300.9 507.679 300.73C508.341 300.58 509.046 299.791 509.217 299.599C509.409 299.812 509.58 299.94 509.58 299.94C509.58 299.94 509.73 300.111 509.046 300.538Z" fill="#AA3E39"/>
<path d="M488.884 283.7C489.119 283.124 489.632 282.782 490.209 282.74C496.765 267.673 496.851 267.567 496.936 267.396L497.876 269.274C497.919 269.188 483.032 302.65 483.032 302.65L481.559 302.053L488.884 283.7Z" fill="#35488B"/>
<path d="M504.539 269.637C504.859 268.591 504.261 267.481 503.215 267.182C502.168 266.862 501.057 267.46 500.758 268.505C500.459 269.551 501.036 270.661 502.083 270.96C503.108 271.28 504.218 270.682 504.539 269.637Z" fill="#415DA5"/>
<path d="M492.279 266.179C492.599 265.134 492.001 264.024 490.955 263.725C489.908 263.426 488.798 264.003 488.499 265.048C488.178 266.094 488.776 267.204 489.823 267.502C490.869 267.801 491.959 267.225 492.279 266.179Z" fill="#415DA5"/>
<path d="M490.785 267.503L502.318 270.405L502.511 268.079L490.977 265.176L490.785 267.503Z" fill="#415DA5"/>
<path d="M502.062 265.219C502.062 265.219 500.973 265.923 500.204 265.902C499.435 265.881 498.452 266.179 498.452 266.179C498.452 266.179 497.427 266.478 497.342 267.695C497.342 267.695 497.342 268.057 498.965 267.545C499.307 267.438 500.161 267.631 500.46 267.545C500.738 267.46 501.613 266.5 502.382 266.521L502.062 265.219Z" fill="#FFB27D"/>
<path d="M496.251 263.832C496.251 263.832 495.162 264.536 494.393 264.515C493.624 264.493 492.642 264.792 492.642 264.792C492.642 264.792 491.617 265.091 491.531 266.307C491.531 266.307 491.553 266.798 493.154 266.158C493.582 265.987 494.351 266.243 494.65 266.158C494.927 266.073 495.995 265.262 496.721 265.048L496.251 263.832Z" fill="#E8945B"/>
<path d="M509.922 234.702C511.502 234.98 512.25 235.855 513.254 238.287C514.3 240.827 513.04 243.174 512.015 242.876C511.374 242.684 511.139 243.793 511.139 243.793L504.967 238.415C504.988 238.415 505.885 234.446 509.922 234.702Z" fill="#2C3A64"/>
<path d="M506.312 249.384C506.312 249.384 508.469 250.601 508.213 253.653C507.956 256.704 505.158 261.527 503.023 262.744C501.335 263.683 496.444 265.176 496.444 265.176L496.273 263.853C496.273 263.853 500.246 261.25 501.122 260.375C502.937 258.454 504.71 248.659 506.312 249.384Z" fill="#E8945B"/>
<path d="M506.526 256.277C506.633 256.96 506.804 257.558 507.039 258.134C507.231 258.604 507.444 259.052 507.658 259.521C508.32 260.908 509.858 261.591 509.9 264.237C509.922 265.155 517.653 261.292 517.696 258.091V258.07C517.717 257.921 517.739 257.494 517.76 256.96C517.824 255.616 517.888 253.482 517.931 252.393C517.931 252.372 517.931 252.351 517.931 252.329C517.952 251.86 517.952 251.54 517.974 251.433C516.949 247.037 514.556 247.016 513.745 247.037C513.638 247.037 513.531 247.037 513.425 247.037C512.976 247.058 512.549 246.845 512.293 246.482C511.844 245.842 511.331 244.732 511.011 243.217L510.819 243.302L507.701 244.626C507.701 244.626 507.978 245.629 508.192 246.589C508.277 246.994 508.341 247.4 508.384 247.72C508.405 248.019 508.235 248.296 507.957 248.403C507.893 248.509 506.035 252.778 506.526 256.277Z" fill="#FFB27D"/>
<path d="M507.037 258.113C507.229 258.582 507.443 259.03 507.656 259.5C508.319 260.887 509.856 261.57 509.899 264.216C509.942 264.216 509.985 264.216 510.049 264.237C515.751 264.686 517.695 258.049 517.695 258.049C517.716 257.899 517.737 257.472 517.759 256.939L507.464 256.96C507.464 256.96 507.251 257.43 507.037 258.113Z" fill="#E8945B"/>
<path d="M505.585 254.976C505.607 255.061 505.649 255.146 505.692 255.232C506.675 257.579 508.875 269.701 508.875 269.701C508.896 269.679 517.802 270.277 521.326 265.411C521.497 265.923 520.664 262.957 519.361 258.988C518.379 256 517.888 253.887 517.93 252.372C517.93 252.351 517.93 252.329 517.93 252.308C517.695 252.116 517.482 251.967 517.268 251.796C516.606 251.284 516.136 250.836 516.115 250.302C516.115 250.089 516.115 249.875 516.158 249.662C516.179 249.555 516.179 249.449 516.2 249.363C516.414 248.296 516.884 247.336 516.884 247.336C515.752 246.824 513.723 247.037 513.723 247.037C513.723 247.037 512.954 248.744 511.331 249.769C510.882 250.046 509.238 250.772 508.447 250.025C507.913 249.534 507.892 248.531 507.935 248.424C506.098 249.064 505.415 249.641 505.415 249.641C506.504 250.366 504.817 252.714 505.585 254.976Z" fill="#739AF0"/>
<path d="M507.699 244.604C507.699 244.604 507.998 245.607 508.19 246.568C510.006 246.141 510.625 244.284 510.817 243.281L507.699 244.604Z" fill="#E8945B"/>
<path d="M507.294 245.65C507.294 245.65 511.609 244.818 511.053 242.129C510.498 239.44 510.669 237.541 507.892 237.946C505.116 238.373 504.796 239.504 504.753 240.443C504.71 241.382 506.141 245.778 507.294 245.65Z" fill="#FFB27D"/>
<path d="M504.56 238.928C505.052 237.989 505.607 238.053 505.927 238.245C508.02 236.452 509.921 238.053 509.921 238.053C510.605 239.909 512.228 240.72 512.228 240.72C512.228 240.72 511.544 241.36 509.643 241.275C509.067 241.254 508.49 240.955 507.956 240.571C508.939 241.638 510.135 242.321 510.135 242.321C507.764 241.766 506.269 238.949 506.119 238.65C505.906 238.949 505.5 239.568 505.436 240.101C505.372 240.827 505.564 242.257 505.137 242.299C505.158 242.299 503.813 240.336 504.56 238.928Z" fill="#2C3A64"/>
<path d="M502.061 265.219L502.381 266.542C502.381 266.542 509.643 265.561 512.013 264.173C514.384 262.786 517.972 254.698 518.25 251.262C518.271 251.07 518.271 250.9 518.271 250.75C518.357 247.784 516.904 247.336 516.904 247.336C516.328 247.058 515.601 248.061 514.833 249.641C513.231 252.927 511.415 258.668 510.347 260.375C509.514 261.655 502.061 265.219 502.061 265.219Z" fill="#FFB27D"/>
<path d="M514.812 249.619C516.799 249.15 518.273 250.75 518.273 250.75C518.358 247.784 516.906 247.336 516.906 247.336C516.308 247.058 515.581 248.061 514.812 249.619Z" fill="#739AF0"/>
<path d="M505.435 249.619C505.435 249.619 504.709 250.302 504.432 251.817C504.432 251.817 505.5 251.817 506.012 252.863C506.012 252.884 506.397 249.769 505.435 249.619Z" fill="#739AF0"/>
<path d="M509.621 235.663C509.621 235.663 512.013 232.696 515.025 233.529C518.036 234.361 519.745 237.839 521.154 237.263C523.504 236.303 524.166 239.461 523.226 241.745C522.415 243.751 518.869 244.519 516.712 242.321C515.153 240.72 512.996 233.891 510.347 236.175C507.699 238.458 509.621 235.663 509.621 235.663Z" fill="#2C3A64"/>
<path d="M581 319.125V319.36C581 319.723 580.701 320.021 580.338 320.021H0.662096C0.299011 320.021 0 319.723 0 319.36V319.125C0 318.762 0.299011 318.463 0.662096 318.463H580.338C580.701 318.463 581 318.762 581 319.125Z" fill="#233862"/>
<path d="M178.445 281.16L180.474 279.603H176.822L178.445 281.16Z" fill="#1D3F77"/>
<path d="M278.059 293.111L279.447 292.023H274.855L278.059 293.111Z" fill="#1D3F77"/>
</svg>
