<svg width="20" height="20" viewBox="0 0 20 20" fill="none" xmlns="http://www.w3.org/2000/svg">
<path d="M8.01242 1.94C5.80575 1.94 4.01242 3.73334 4.01242 5.94V7.86667C4.01242 8.27334 3.83908 8.89334 3.63242 9.24L2.86575 10.5133C2.39242 11.3 2.71908 12.1733 3.58575 12.4667C6.45908 13.4267 9.55908 13.4267 12.4324 12.4667C13.2391 12.2 13.5924 11.2467 13.1524 10.5133L12.3857 9.24C12.1857 8.89334 12.0124 8.27334 12.0124 7.86667V5.94C12.0124 3.74 10.2124 1.94 8.01242 1.94Z" stroke="white" stroke-miterlimit="10" stroke-linecap="round"/>
<path d="M9.24596 2.13333C9.0393 2.07333 8.82596 2.02667 8.60596 2C7.96596 1.92 7.35263 1.96667 6.7793 2.13333C6.97263 1.64 7.45263 1.29333 8.01263 1.29333C8.57263 1.29333 9.05263 1.64 9.24596 2.13333Z" stroke="white" stroke-miterlimit="10" stroke-linecap="round" stroke-linejoin="round"/>
<path d="M10.0137 12.7067C10.0137 13.8067 9.11367 14.7067 8.01367 14.7067C7.46701 14.7067 6.96034 14.48 6.60034 14.12C6.24034 13.76 6.01367 13.2533 6.01367 12.7067" stroke="white" stroke-miterlimit="10"/>
</svg>
