<svg width="50" height="50" viewBox="0 0 50 50" fill="none" xmlns="http://www.w3.org/2000/svg">
<path d="M45.8337 20.8333V31.25C45.8337 41.6667 41.667 45.8333 31.2503 45.8333H18.7503C8.33366 45.8333 4.16699 41.6667 4.16699 31.25V18.75C4.16699 8.33333 8.33366 4.16666 18.7503 4.16666H29.167" stroke="#69D600" stroke-width="3" stroke-linecap="round" stroke-linejoin="round"/>
<path d="M45.8337 20.8333H37.5003C31.2503 20.8333 29.167 18.75 29.167 12.5V4.16666L45.8337 20.8333Z" stroke="#69D600" stroke-width="3" stroke-linecap="round" stroke-linejoin="round"/>
<path d="M15 21.25C15 22.7725 16.039 24 17.3298 24H19.964C21.087 24 22 22.926 22 21.6041C22 20.1642 21.4438 19.6567 20.6147 19.3262L16.3853 17.6738C15.5562 17.3433 15 16.8358 15 15.3959C15 14.074 15.913 13 17.036 13H19.6702C20.961 13 22 14.2275 22 15.75" stroke="#69D600" stroke-width="2" stroke-linecap="round" stroke-linejoin="round"/>
<path d="M19 12V25" stroke="#69D600" stroke-width="2" stroke-linecap="round" stroke-linejoin="round"/>
<path d="M14.583 30.0833H27.083" stroke="#69D600" stroke-width="2" stroke-linecap="round" stroke-linejoin="round"/>
<path d="M14.583 35.4167H22.9163" stroke="#69D600" stroke-width="2" stroke-linecap="round" stroke-linejoin="round"/>
</svg>
