<svg width="50" height="30" viewBox="0 0 50 30" fill="none" xmlns="http://www.w3.org/2000/svg">
<g clip-path="url(#clip0_45_1279)">
<path d="M45.2139 23.0146V20.6591H48.8418C49.1631 20.6591 49.4521 20.5273 49.6602 20.3193C49.8774 20.1019 49.9996 19.8073 50 19.4999V10.1376C50 9.81929 49.8672 9.52729 49.6592 9.31929C49.4512 9.11128 49.1602 8.97847 48.8418 8.97847H45.2139V6.62397C45.2139 4.5937 43.5508 2.93354 41.5225 2.93354H29.8877L29.4434 5.37202H41.2578C42.0908 5.37202 42.7744 6.05366 42.7744 6.88862V22.75C42.7744 23.582 42.0898 24.2666 41.2578 24.2666H26.1787L24.6592 26.706H41.5225C43.5547 26.706 45.2139 25.0478 45.2139 23.0146ZM25.291 11.5146H28.9053C29.6719 11.5175 30.1094 12.374 29.6934 12.996L19.5996 29.1884C19.0566 30.0761 17.6523 29.5507 17.8574 28.5078L20.6084 18L16.3213 18.0722C15.5801 18.0859 15.123 17.2832 15.4902 16.6464L25.4521 0.457958C25.9785 -0.414112 27.3398 0.0526848 27.207 1.07124L25.291 11.5146ZM20.3281 2.93354H3.69043C1.65918 2.93354 0 4.59272 0 6.62397V23.0146C0 25.0439 1.66309 26.706 3.69043 26.706H15.2529L15.8916 24.2666H3.95508C3.12109 24.2666 2.43848 23.5839 2.43848 22.75V6.88862C2.43848 6.05757 3.12402 5.37202 3.95508 5.37202H18.8076C19.3135 4.55366 19.8203 3.74018 20.3281 2.93354Z" fill="#69D600"/>
</g>
<defs>
<clipPath id="clip0_45_1279">
<rect width="50" height="29.6396" fill="white"/>
</clipPath>
</defs>
</svg>
