<svg width="50" height="50" viewBox="0 0 50 50" fill="none" xmlns="http://www.w3.org/2000/svg">
<path d="M18.0664 29.8538C18.0664 32.5413 20.1289 34.708 22.6914 34.708H27.9206C30.1497 34.708 31.9622 32.8122 31.9622 30.4788C31.9622 27.9372 30.8581 27.0413 29.2122 26.458L20.8164 23.5413C19.1706 22.958 18.0664 22.0622 18.0664 19.5205C18.0664 17.1872 19.8789 15.2913 22.1081 15.2913H27.3372C29.8997 15.2913 31.9622 17.458 31.9622 20.1455" stroke="#69D600" stroke-width="3" stroke-linecap="round" stroke-linejoin="round"/>
<path d="M25 12.5V37.5" stroke="#69D600" stroke-width="3" stroke-linecap="round" stroke-linejoin="round"/>
<path d="M31.2503 45.8334H18.7503C8.33366 45.8334 4.16699 41.6667 4.16699 31.25V18.75C4.16699 8.33335 8.33366 4.16669 18.7503 4.16669H31.2503C41.667 4.16669 45.8337 8.33335 45.8337 18.75V31.25C45.8337 41.6667 41.667 45.8334 31.2503 45.8334Z" stroke="#69D600" stroke-width="3" stroke-linecap="round" stroke-linejoin="round"/>
</svg>
