<svg width="50" height="37" viewBox="0 0 50 37" fill="none" xmlns="http://www.w3.org/2000/svg">
<g clip-path="url(#clip0_45_1275)">
<path fill-rule="evenodd" clip-rule="evenodd" d="M33.8826 12.6709V14.9577C33.8826 18.9372 35.4411 20.8822 39.4938 21.3704V21.5902C39.4775 21.6919 39.4653 21.7936 39.4653 21.8994V26.4893V32.5033C35.1888 32.5114 32.959 32.548 28.7516 32.5846C25.118 32.6172 21.4803 32.6497 16.0889 32.6538V28.2715H25.9603C27.4373 28.2715 28.6418 27.063 28.6418 25.59V2.68148C28.6418 1.2085 27.4333 0 25.9603 0H2.68148C1.2085 0 0 1.2085 0 2.68148V25.59C0 27.0671 1.2085 28.2715 2.68148 28.2715H12.6506V34.375C12.6506 35.3231 13.4196 36.0962 14.3717 36.0962C19.2464 36.0962 24.0112 36.0555 28.7801 36.0107C32.7881 35.9741 34.8226 35.9416 41.1865 35.9416C42.1346 35.9416 42.9077 35.1725 42.9077 34.2204V26.4893V21.8994C42.9077 21.7814 42.8955 21.6675 42.8711 21.5535V21.3338C46.8831 20.9473 48.4823 18.5872 48.4823 14.7339V12.6709H33.8826ZM12.8906 19.519H15.7511V17.6798C15.7511 17.4072 15.6413 17.1631 15.4622 16.984C15.2832 16.805 15.0391 16.6951 14.7664 16.6951H13.8631C13.5946 16.6951 13.3545 16.805 13.1755 16.98C13.0005 17.1549 12.8906 17.3991 12.8906 17.6676V19.519ZM15.8854 20.3857H12.7563C12.557 20.3857 12.3739 20.3044 12.2396 20.1701C12.1053 20.0358 12.0239 19.8568 12.0239 19.6533V17.6676C12.0239 17.1631 12.2314 16.7033 12.5651 16.3696C12.8988 16.036 13.3586 15.8285 13.8631 15.8285H14.7664C15.2751 15.8285 15.7389 16.036 16.0726 16.3696C16.4062 16.7033 16.6138 17.1672 16.6138 17.6758V19.6493C16.6138 19.8527 16.5324 20.0317 16.3981 20.166C16.272 20.3044 16.0889 20.3857 15.8854 20.3857ZM9.89583 8.80941H11.4868C11.7147 8.80941 11.9222 8.90299 12.0728 9.05355C12.2233 9.2041 12.3169 9.41162 12.3169 9.64355V13.1348C12.3169 13.3626 12.2233 13.5702 12.0728 13.7207C11.9222 13.8713 11.7147 13.9648 11.4868 13.9648H9.89583C9.66797 13.9648 9.46045 13.8713 9.3099 13.7207C9.29769 13.7085 9.28955 13.6963 9.27734 13.6841C9.14307 13.5376 9.06169 13.3423 9.06169 13.1307V9.64355C9.06169 9.41569 9.15527 9.20817 9.30583 9.05762C9.46045 8.903 9.66797 8.80941 9.89583 8.80941ZM11.4543 9.67611H9.92839V13.0981H11.4543V9.67611ZM17.1549 8.80941H18.7459C18.9738 8.80941 19.1813 8.90299 19.3319 9.05355C19.4824 9.2041 19.576 9.41162 19.576 9.64355V13.1348C19.576 13.3626 19.4824 13.5702 19.3319 13.7207C19.1813 13.8713 18.9738 13.9648 18.7459 13.9648H17.1549C16.9271 13.9648 16.7196 13.8713 16.569 13.7207C16.4185 13.5702 16.3249 13.3626 16.3249 13.1348V9.64355C16.3249 9.41569 16.4185 9.20817 16.569 9.05355C16.7155 8.90299 16.923 8.80941 17.1549 8.80941ZM18.7134 9.67611H17.1875V13.0981H18.7134V9.67611ZM3.40983 23.5758C4.05273 23.5758 4.57357 24.0967 4.57357 24.7396C4.57357 25.3825 4.05273 25.9033 3.40983 25.9033C2.76693 25.9033 2.24609 25.3825 2.24609 24.7396C2.24202 24.0967 2.76693 23.5758 3.40983 23.5758ZM25.3784 2.22575C26.0213 2.22575 26.5422 2.74658 26.5422 3.38949C26.5422 4.03239 26.0213 4.55322 25.3784 4.55322C24.7355 4.55322 24.2147 4.03239 24.2147 3.38949C24.2147 2.74658 24.7355 2.22575 25.3784 2.22575ZM14.2253 4.5695C19.5068 4.5695 23.7874 8.8501 23.7874 14.1317C23.7874 19.4132 19.5068 23.6938 14.2253 23.6938C8.94369 23.6938 4.66309 19.4132 4.66309 14.1317C4.66309 8.85417 8.94369 4.5695 14.2253 4.5695ZM33.1462 9.71273H36.0026V3.96729C36.0026 3.15348 36.6699 2.48617 37.4837 2.48617C38.2975 2.48617 38.9648 3.15348 38.9648 3.96729V9.71273H43.3146V3.96729C43.3146 3.15348 43.9819 2.48617 44.7957 2.48617C45.6095 2.48617 46.2769 3.15348 46.2769 3.96729V9.71273H49.056C49.5728 9.71273 49.9919 10.1359 49.9919 10.6486V11.735C49.9919 12.2518 49.5687 12.6709 49.056 12.6709H33.1462C32.6294 12.6709 32.2103 12.2477 32.2103 11.735V10.6486C32.2103 10.1359 32.6294 9.71273 33.1462 9.71273ZM37.2314 13.5173H45.1294V14.6891H37.2314V13.5173Z" fill="#69D600"/>
</g>
<defs>
<clipPath id="clip0_45_1275">
<rect width="50" height="36.0962" fill="white"/>
</clipPath>
</defs>
</svg>
