<svg width="14" height="12" viewBox="0 0 14 12" fill="none" xmlns="http://www.w3.org/2000/svg">
<g clip-path="url(#clip0_151_1038)">
<path d="M1.7443 9.30397C1.77011 9.47324 1.81714 9.63909 1.88444 9.79812C1.95442 9.9675 2.06108 10.1216 2.19775 10.2508C2.63981 10.66 3.21403 10.6589 3.84294 10.6589H4.14144C4.40006 10.3114 5.00732 10.068 5.71371 10.068C6.65592 10.068 7.42269 10.5006 7.42269 11.0351C7.42269 11.5696 6.6582 12.0022 5.71371 12.0022C5.02214 12.0022 4.42627 11.7684 4.15853 11.4326H3.84294C3.0363 11.4326 2.29915 11.4326 1.61556 10.8013C1.3988 10.5979 1.22898 10.3552 1.11654 10.0882C1.01109 9.83648 0.942127 9.57274 0.911458 9.30397C0.668046 9.29843 0.436568 9.20447 0.266324 9.0421C0.0960798 8.87974 0.000521447 8.66179 0 8.43468L0 5.29972C0.000601678 5.06934 0.0989839 4.84856 0.273631 4.68566C0.448279 4.52276 0.684978 4.43099 0.931966 4.43043H0.998047C1.16667 2.82044 2.2513 1.56114 3.71761 0.807688C4.58739 0.36349 5.54788 0.0955177 6.5363 0.0212901C7.5408 -0.0605881 8.55207 0.0728138 9.49284 0.411301C11.1392 1.0181 12.5189 2.30716 13.0532 4.43043H13.068C13.315 4.43099 13.5517 4.52276 13.7264 4.68566C13.901 4.84856 13.9994 5.06934 14 5.29972V8.43468C13.9994 8.66506 13.901 8.88584 13.7264 9.04874C13.5517 9.21164 13.315 9.30341 13.068 9.30397H12.1361V4.50694C11.6587 2.76305 10.5148 1.70036 9.15788 1.20301C8.34638 0.911732 7.47417 0.797587 6.60807 0.869324C5.74978 0.93235 4.91544 1.16376 4.15967 1.54839C2.89046 2.20514 1.96419 3.2944 1.889 4.68123C1.88711 4.72289 1.87867 4.76407 1.86393 4.80344V9.30397H1.7443Z" fill="white"/>
</g>
<defs>
<clipPath id="clip0_151_1038">
<rect width="14" height="12" fill="white"/>
</clipPath>
</defs>
</svg>
