<svg width="28" height="28" viewBox="0 0 28 28" fill="none" xmlns="http://www.w3.org/2000/svg">
<path d="M10.1631 21.6731H9.61501C5.23039 21.6731 3.03809 20.5769 3.03809 15.0961V9.61537C3.03809 5.23076 5.23039 3.03845 9.61501 3.03845H18.3842C22.7689 3.03845 24.9612 5.23076 24.9612 9.61537V15.0961C24.9612 19.4808 22.7689 21.6731 18.3842 21.6731H17.8362C17.4964 21.6731 17.1675 21.8375 16.9592 22.1115L15.315 24.3038C14.5915 25.2684 13.4077 25.2684 12.6842 24.3038L11.04 22.1115C10.8646 21.8704 10.459 21.6731 10.1631 21.6731Z" stroke="white" stroke-width="2" stroke-miterlimit="10" stroke-linecap="round" stroke-linejoin="round"/>
<path d="M18.3799 12.9038H18.3898" stroke="white" stroke-width="3" stroke-linecap="round" stroke-linejoin="round"/>
<path d="M13.9942 12.9038H14.0041" stroke="white" stroke-width="3" stroke-linecap="round" stroke-linejoin="round"/>
<path d="M9.60846 12.9038H9.61831" stroke="white" stroke-width="3" stroke-linecap="round" stroke-linejoin="round"/>
</svg>
