<svg width="67" height="66" viewBox="0 0 67 66" fill="none" xmlns="http://www.w3.org/2000/svg">
<g clip-path="url(#clip0_43_1051)">
<path fill-rule="evenodd" clip-rule="evenodd" d="M55.8438 20.0443H44.6662C44.0328 20.0689 43.4011 19.9644 42.8099 19.7373C42.2187 19.5101 41.6805 19.1652 41.2285 18.7237C40.7765 18.2822 40.4202 17.7535 40.1815 17.1701C39.9428 16.5866 39.8269 15.9608 39.8408 15.3312V4.07929H11.4497C11.4078 4.08002 11.3665 4.08901 11.3281 4.10575C11.2897 4.12249 11.2551 4.14664 11.2262 4.1768C11.1909 4.20257 11.1631 4.23726 11.1459 4.27727C11.1286 4.31728 11.1225 4.36116 11.128 4.40433V61.6011C11.1354 61.6838 11.1699 61.7618 11.2262 61.8232C11.2535 61.8553 11.2879 61.8807 11.3266 61.8976C11.3653 61.9145 11.4075 61.9224 11.4497 61.9207H55.5275C55.6257 61.9207 55.6202 61.872 55.6693 61.8232C55.7184 61.7744 55.8547 61.6715 55.8547 61.6011V20.0443H55.8438ZM59.9168 62.885C59.9153 63.7122 59.584 64.505 58.9953 65.0899C58.4066 65.6748 57.6086 66.004 56.7761 66.0054H10.1738C9.34134 66.004 8.54335 65.6748 7.95468 65.0899C7.36601 64.505 7.03466 63.7122 7.03322 62.885V3.12041C7.03184 2.71053 7.11261 2.30447 7.27082 1.92592C7.42902 1.54737 7.6615 1.2039 7.95469 0.915538C8.54335 0.330656 9.34134 0.00143653 10.1738 0L41.9291 0C42.412 0.00454127 42.8813 0.159956 43.2704 0.444226L59.4915 16.7614C59.6876 16.9333 59.8314 17.1564 59.9065 17.4053C59.9817 17.6542 59.9852 17.9191 59.9168 18.1699V62.8796V62.885ZM43.6193 15.0007L43.3849 5.21694L54.8841 16.7939L44.9933 16.3551C44.8114 16.3643 44.6295 16.3357 44.4593 16.271C44.2891 16.2064 44.1344 16.1071 44.0051 15.9796C43.8757 15.8521 43.7746 15.6992 43.7082 15.5306C43.6418 15.3621 43.6115 15.1816 43.6193 15.0007Z" fill="#002245"/>
<path fill-rule="evenodd" clip-rule="evenodd" d="M3.65861 25.0717H63.3414C64.3118 25.0745 65.2415 25.4592 65.9272 26.1414C66.6128 26.8237 66.9986 27.748 67 28.7121V53.1445C66.9971 54.1077 66.6107 55.0307 65.9252 55.7118C65.2397 56.3929 64.3108 56.7767 63.3414 56.7796H3.65861C2.68823 56.7767 1.7585 56.3921 1.07284 55.7098C0.387186 55.0276 0.0014376 54.1033 0 53.1391L0 28.7121C0.00287669 27.7489 0.38926 26.826 1.07476 26.1449C1.76026 25.4638 2.68917 25.0799 3.65861 25.0771V25.0717Z" fill="#FF0000"/>
<path d="M8.9043 32.3851H17.7373C19.662 32.3851 21.1015 32.8348 22.0666 33.7449C23.0317 34.655 23.5006 35.9552 23.5006 37.6346C23.5434 38.3813 23.4255 39.1284 23.1547 39.8263C22.8839 40.5241 22.4665 41.1565 21.9303 41.6814C20.8888 42.6565 19.2913 43.1386 17.1484 43.1386H14.2314V49.4607H8.9043V32.3851ZM14.2314 39.6824H15.54C16.3078 39.7534 17.0771 39.5623 17.7209 39.1406C17.9209 38.9751 18.0807 38.7668 18.1883 38.5314C18.2959 38.2959 18.3486 38.0394 18.3425 37.7809C18.3473 37.5287 18.3015 37.2782 18.2079 37.0438C18.1143 36.8095 17.9747 36.5959 17.7973 36.4157C17.4374 36.0419 16.7559 35.8739 15.7526 35.8739H14.2314V39.6661V39.6824ZM26.3359 32.3851H34.231C35.5186 32.3389 36.8022 32.5527 38.0042 33.0136C38.9325 33.4111 39.7474 34.0309 40.376 34.8175C41.0115 35.6179 41.4737 36.5401 41.7336 37.5262C42.0218 38.6061 42.1648 39.7191 42.1589 40.8363C42.221 42.2786 42.0082 43.7196 41.5319 45.0835C41.152 46.0502 40.5618 46.9215 39.8035 47.6351C39.1306 48.2775 38.3083 48.7446 37.4098 48.9948C36.379 49.2877 35.3139 49.4443 34.2419 49.4607H26.3359V32.3851ZM31.6248 36.2477V45.5765H32.9334C33.7434 45.6282 34.5549 45.5024 35.3106 45.2081C35.8103 44.9181 36.1951 44.4669 36.4011 43.9296C36.7198 42.9735 36.8548 41.9665 36.7992 40.9609C36.7992 39.1551 36.5029 37.9181 35.9104 37.2499C35.3161 36.5836 34.3237 36.2477 32.9443 36.2477H31.6248ZM44.9452 32.3851H58.0802V36.0581H50.294V39.0377H56.9679V42.4994H50.294V49.4607H44.9615V32.3851H44.9452Z" fill="white"/>
</g>
<defs>
<clipPath id="clip0_43_1051">
<rect width="67" height="66" fill="white"/>
</clipPath>
</defs>
</svg>
