<svg width="16" height="16" viewBox="0 0 16 16" fill="none" xmlns="http://www.w3.org/2000/svg">
<g clip-path="url(#clip0_151_1042)">
<path d="M8 1C9.93293 1 11.6832 1.78367 12.9498 3.05023C14.2163 4.31707 15 6.06707 15 8C15 9.93293 14.2163 11.6832 12.9498 12.9498C11.6832 14.2163 9.93293 15 8 15C6.06707 15 4.31707 14.2163 3.05023 12.9498C1.78367 11.6832 1 9.93293 1 8C1 6.06707 1.78367 4.31707 3.05023 3.05023C4.31707 1.78367 6.06707 1 8 1ZM7.41238 9.24441V9.18891C7.41676 8.82086 7.45285 8.52938 7.52367 8.31254C7.59313 8.09598 7.69293 7.91961 7.82363 7.78617C7.95406 7.65164 8.11102 7.52941 8.29449 7.41813C8.41234 7.3432 8.51926 7.26008 8.61387 7.16711C8.7082 7.07523 8.78312 6.96832 8.83891 6.84746C8.89414 6.72797 8.92203 6.5948 8.92203 6.4477C8.92203 6.2727 8.88047 6.12121 8.79707 5.99215C8.71504 5.86418 8.60402 5.76574 8.46785 5.69492C8.33031 5.62547 8.17773 5.59074 8.00957 5.59074C7.85836 5.59074 7.71398 5.62109 7.57508 5.68508C7.43754 5.7477 7.32215 5.84613 7.23191 5.97957C7.14168 6.11273 7.08891 6.28363 7.07496 6.49199H6.17508C6.18902 6.13789 6.27926 5.83793 6.44441 5.59211C6.61121 5.34629 6.83078 5.16008 7.10285 5.03375C7.37656 4.90742 7.67926 4.84508 8.00957 4.84508C8.37352 4.84508 8.69016 4.91152 8.96223 5.0477C9.23457 5.1825 9.44703 5.37117 9.59852 5.61289C9.74836 5.85461 9.82492 6.13516 9.82492 6.45727C9.82492 6.6782 9.7902 6.87672 9.72074 7.05309C9.65129 7.22945 9.55395 7.38777 9.42625 7.52531C9.29828 7.66422 9.14707 7.78617 8.96934 7.89199C8.80117 7.99754 8.66527 8.10582 8.56246 8.2182C8.45828 8.33059 8.38309 8.46402 8.33605 8.61687C8.28875 8.77082 8.2625 8.96113 8.2584 9.18891V9.24441H7.41238ZM7.85973 11.0442C7.6973 11.0431 7.5584 10.9859 7.44164 10.8705C7.32516 10.7554 7.26801 10.6152 7.26801 10.4514C7.26801 10.2903 7.32516 10.1514 7.44164 10.036C7.5584 9.9209 7.6973 9.86238 7.85973 9.86238C8.01941 9.86238 8.15832 9.9209 8.2748 10.036C8.39293 10.1514 8.45117 10.2903 8.45117 10.4514C8.45117 10.5596 8.42355 10.6597 8.36941 10.7486C8.31527 10.8388 8.24445 10.911 8.15559 10.9638C8.06672 11.0166 7.96801 11.0431 7.85973 11.0442ZM12.4218 3.57824C11.2903 2.44703 9.72676 1.74703 8 1.74703C6.27324 1.74703 4.71 2.44703 3.57824 3.57824C2.44703 4.71 1.74703 6.27324 1.74703 8C1.74703 9.72676 2.44703 11.2903 3.57824 12.4218C4.71 13.553 6.27324 14.253 8 14.253C9.72676 14.253 11.2903 13.553 12.4218 12.4218C13.553 11.2903 14.253 9.72676 14.253 8C14.253 6.27324 13.553 4.71 12.4218 3.57824Z" fill="#F9FAFB" stroke="#F9FAFB" stroke-width="0.5"/>
</g>
<defs>
<clipPath id="clip0_151_1042">
<rect width="16" height="16" fill="white"/>
</clipPath>
</defs>
</svg>
