<svg width="50" height="43" viewBox="0 0 50 43" fill="none" xmlns="http://www.w3.org/2000/svg">
<g clip-path="url(#clip0_43_1047)">
<path fill-rule="evenodd" clip-rule="evenodd" d="M4.68349 41.8701V23.9665C3.73134 24.3327 2.84023 24.3408 2.09967 24.0885C1.52187 23.8932 1.03359 23.5433 0.675517 23.0916C0.317445 22.64 0.0895799 22.0906 0.0204067 21.4844C-0.0853875 20.5444 0.195374 19.4824 0.996969 18.4855C1.03766 18.4367 1.08242 18.3878 1.13532 18.3472L24.3531 0.223784C24.6542 -0.0529085 25.1181 -0.0813915 25.4517 0.179025L48.7224 18.2698C48.759 18.2983 48.7916 18.3268 48.8241 18.3634C49.9024 19.5231 50.171 20.8089 49.9105 21.8953C49.7803 22.4324 49.524 22.9126 49.17 23.3113C48.816 23.7101 48.3643 24.0194 47.8516 24.2025C47.0378 24.4954 46.0694 24.4873 45.0888 24.0234V41.8213H42.8101V23.0224C42.8101 22.6115 26.8474 9.99348 25.0855 8.62222C23.2178 10.0423 6.96214 22.5586 6.96214 23.0876V41.8782L4.68349 41.8701ZM25.7732 22.6603V29.9805H32.3406V29.9601C32.3406 27.9419 31.5145 26.1068 30.184 24.7762C29.0243 23.6165 27.4822 22.8393 25.7732 22.6603ZM25.7732 31.5267V37.8825H32.3406V31.5267H25.7732ZM24.227 37.8784V31.5267H17.6596V37.8825H24.227V37.8784ZM24.227 29.9805V22.6603C22.5139 22.8434 20.9758 23.6165 19.8161 24.7762C18.4856 26.1068 17.6596 27.9419 17.6596 29.9601V29.9805H24.227ZM14.4817 41.1051H35.5144V42.6514H14.4817V41.1051ZM25.0001 21.0734C27.4455 21.0734 29.6672 22.0744 31.2745 23.6816C32.8858 25.293 33.8827 27.5146 33.8827 29.956V39.4206H16.1133V29.956C16.1133 27.5106 17.1143 25.2889 18.7216 23.6816C20.3329 22.0744 22.5546 21.0734 25.0001 21.0734Z" fill="#69D600"/>
</g>
<defs>
<clipPath id="clip0_43_1047">
<rect width="50" height="42.6473" fill="white"/>
</clipPath>
</defs>
</svg>
