<svg width="20" height="20" viewBox="0 0 20 20" fill="none" xmlns="http://www.w3.org/2000/svg">
<g opacity="0.5">
<path opacity="0.3" d="M11.9101 13.9226C11.5847 13.5972 11.5847 13.0695 11.9101 12.7441C12.2355 12.4186 12.7632 12.4186 13.0886 12.7441L16.4219 16.0774C16.7474 16.4028 16.7474 16.9305 16.4219 17.2559C16.0965 17.5814 15.5689 17.5814 15.2434 17.2559L11.9101 13.9226Z" fill="#5A5968"/>
<path fill-rule="evenodd" clip-rule="evenodd" d="M3.33398 9.16665C3.33398 12.3883 5.94566 15 9.16732 15C12.389 15 15.0007 12.3883 15.0007 9.16665C15.0007 5.94499 12.389 3.33331 9.16732 3.33331C5.94566 3.33331 3.33398 5.94499 3.33398 9.16665ZM13.3333 9.16667C13.3333 11.4679 11.4679 13.3333 9.16667 13.3333C6.86548 13.3333 5 11.4679 5 9.16667C5 6.86548 6.86548 5 9.16667 5C11.4679 5 13.3333 6.86548 13.3333 9.16667Z" fill="#5A5968"/>
</g>
</svg>
