<svg width="50" height="45" viewBox="0 0 50 45" fill="none" xmlns="http://www.w3.org/2000/svg">
<g clip-path="url(#clip0_45_1272)">
<path fill-rule="evenodd" clip-rule="evenodd" d="M10.6323 3.5848C9.91613 2.967 9.08202 2.50097 8.18048 2.21491C7.27894 1.92885 6.32873 1.82872 5.38736 1.92057C11.084 6.56738 4.33756 12.5692 0.590002 5.58268C-0.948084 9.03727 0.655105 12.2192 3.84521 13.855C5.35074 14.6281 6.1442 15.0757 6.69352 15.6982C7.00318 16.0547 7.25823 16.4551 7.45035 16.8864L8.87044 20.2474H2.89306C2.76875 20.2479 2.64576 20.273 2.53117 20.3212C2.41657 20.3694 2.31262 20.4397 2.22529 20.5282C2.13795 20.6167 2.06895 20.7215 2.02224 20.8367C1.97554 20.9519 1.95205 21.0752 1.95312 21.1995V37.8418C1.95849 39.6553 2.68128 41.393 3.96363 42.6754C5.24598 43.9577 6.98369 44.6805 8.7972 44.6859H39.3839C41.1975 44.6805 42.9352 43.9577 44.2175 42.6754C45.4999 41.393 46.2227 39.6553 46.228 37.8418V21.1995C46.228 20.9492 46.1286 20.7091 45.9515 20.532C45.7745 20.355 45.5344 20.2555 45.284 20.2555H36.1694L41.4876 11.3037L37.675 9.10644L31.0099 20.2555H26.77V19.0918C26.77 19.0402 26.7528 18.9901 26.7212 18.9494C26.5177 18.7052 26.3631 18.5425 26.2329 18.3756C25.9318 18.0257 25.7772 17.8507 25.7772 17.7368C25.7772 17.6229 25.9237 17.4316 26.2207 17.0654C26.3428 16.9149 26.4893 16.7358 26.6601 16.512C26.6941 16.4708 26.7128 16.419 26.713 16.3656V15.0757C26.713 15.0163 26.6895 14.9594 26.6475 14.9174C26.6055 14.8755 26.5486 14.8519 26.4893 14.8519H24.5158L24.5524 5.86344L25.7406 3.78418C25.8625 3.59642 25.9275 3.37737 25.9277 3.15348V1.11898C25.9192 0.814254 25.7902 0.525345 25.569 0.315587C25.3478 0.105828 25.0525 -0.00766158 24.7477 -2.23986e-06H21.9727C21.8214 0.00212011 21.6721 0.0340116 21.5332 0.0938508C21.3943 0.15369 21.2686 0.240305 21.1631 0.348749C21.0577 0.457193 20.9747 0.585341 20.9188 0.725876C20.8629 0.866411 20.8352 1.01658 20.8374 1.1678L20.8699 3.42204C20.8726 3.65426 20.9465 3.88007 21.0815 4.06901L22.1924 5.65999L22.1558 14.8682H19.8201C19.7904 14.8682 19.761 14.8741 19.7336 14.8856C19.7061 14.8971 19.6813 14.9139 19.6604 14.9351C19.6396 14.9564 19.6232 14.9815 19.6122 15.0091C19.6012 15.0368 19.5958 15.0663 19.5963 15.096V16.3574C19.5966 16.4116 19.6169 16.4638 19.6533 16.5039C19.8446 16.7155 20.0073 16.9108 20.1497 17.041C20.5566 17.4764 20.7519 17.688 20.756 17.8548C20.7601 18.0216 20.5892 18.2048 20.2718 18.6076C20.1131 18.807 19.9178 19.0552 19.6859 19.3644C19.652 19.4039 19.6345 19.4549 19.637 19.5068V20.2637H14.3188L12.0809 15.0106C11.8517 14.5229 11.6994 14.0027 11.6292 13.4684C11.5993 12.957 11.6377 12.4439 11.7432 11.9425C12.2843 8.77685 13.3708 6.1442 10.6323 3.59293V3.5848ZM3.83707 26.0173H44.3522V22.1395H3.83707V26.0173ZM44.3522 27.9012H38.7085V31.071C38.7085 31.4103 38.5749 31.7359 38.3365 31.9773C38.0981 32.2188 37.7742 32.3566 37.4349 32.3608H32.902C32.5602 32.3598 32.2328 32.2235 31.9911 31.9819C31.7494 31.7402 31.6132 31.4127 31.6121 31.071V27.9012H17.0166V31.071C17.0155 31.4127 16.8793 31.7402 16.6376 31.9819C16.3959 32.2235 16.0685 32.3598 15.7267 32.3608H11.2101C10.8676 32.3608 10.5391 32.2251 10.2966 31.9833C10.0541 31.7415 9.91725 31.4134 9.91617 31.071V27.9012H3.83707V37.8418C3.84136 39.1564 4.36519 40.4159 5.29435 41.3458C6.22351 42.2758 7.48264 42.8006 8.7972 42.806H39.3839C40.6999 42.8028 41.9611 42.2789 42.892 41.3487C43.823 40.4185 44.3479 39.1578 44.3522 37.8418V27.9012ZM30.6356 7.66194C31.2826 7.18135 32.0141 6.82662 32.7921 6.61621C33.3218 6.45595 33.8783 6.40398 34.4285 6.4634C34.9787 6.52282 35.5112 6.69242 35.9945 6.96208L44.2871 11.7432L43.7866 12.6139L46.9401 14.4491L50 9.15934L46.8506 7.32422L46.2809 8.2845L38.0371 3.5319C37.5608 3.22288 37.0266 3.01378 36.4671 2.91726C35.9076 2.82074 35.3342 2.83881 34.7819 2.97038C33.0566 3.43424 31.6691 5.00488 30.6193 7.66194H30.6356Z" fill="#69D600"/>
</g>
<defs>
<clipPath id="clip0_45_1272">
<rect width="50" height="44.6655" fill="white"/>
</clipPath>
</defs>
</svg>
