<svg width="50" height="50" viewBox="0 0 50 50" fill="none" xmlns="http://www.w3.org/2000/svg">
<path d="M37.7913 45.0417C35.958 45.5833 33.7913 45.8333 31.2497 45.8333H18.7497C16.208 45.8333 14.0413 45.5833 12.208 45.0417C12.6663 39.625 18.2288 35.3541 24.9997 35.3541C31.7705 35.3541 37.333 39.625 37.7913 45.0417Z" stroke="#69D600" stroke-width="3" stroke-linecap="round" stroke-linejoin="round"/>
<path d="M31.2503 4.16667H18.7503C8.33366 4.16667 4.16699 8.33334 4.16699 18.75V31.25C4.16699 39.125 6.54199 43.4375 12.2087 45.0417C12.667 39.625 18.2295 35.3541 25.0003 35.3541C31.7712 35.3541 37.3337 39.625 37.792 45.0417C43.4587 43.4375 45.8337 39.125 45.8337 31.25V18.75C45.8337 8.33334 41.667 4.16667 31.2503 4.16667ZM25.0003 29.5208C20.8753 29.5208 17.542 26.1667 17.542 22.0417C17.542 17.9167 20.8753 14.5833 25.0003 14.5833C29.1253 14.5833 32.4587 17.9167 32.4587 22.0417C32.4587 26.1667 29.1253 29.5208 25.0003 29.5208Z" stroke="#69D600" stroke-width="3" stroke-linecap="round" stroke-linejoin="round"/>
<path d="M32.4587 22.0417C32.4587 26.1667 29.1253 29.5208 25.0003 29.5208C20.8753 29.5208 17.542 26.1667 17.542 22.0417C17.542 17.9167 20.8753 14.5833 25.0003 14.5833C29.1253 14.5833 32.4587 17.9167 32.4587 22.0417Z" stroke="#69D600" stroke-width="1.5" stroke-linecap="round" stroke-linejoin="round"/>
</svg>
